<?xml version="1.0" standalone="no"?>
<!DOCTYPE svg PUBLIC "-//W3C//DTD SVG 20010904//EN"
 "http://www.w3.org/TR/2001/REC-SVG-20010904/DTD/svg10.dtd">
<svg version="1.0" xmlns="http://www.w3.org/2000/svg"
 width="1024.000000pt" height="1024.000000pt" viewBox="0 0 1024.000000 1024.000000"
 preserveAspectRatio="xMidYMid meet">
<metadata>
Created by potrace 1.11, written by Peter Selinger 2001-2013
</metadata>
<g transform="translate(0.000000,1024.000000) scale(0.100000,-0.100000)"
fill="#000000" stroke="none">
<path d="M7386 9568 c-7 -27 -45 -72 -72 -86 -10 -5 -41 -13 -69 -17 -27 -4
-63 -14 -80 -23 -38 -20 -148 -60 -198 -73 -47 -12 -221 -84 -265 -110 -18
-10 -43 -19 -55 -19 -30 0 -179 -66 -193 -85 -6 -8 -18 -15 -26 -15 -28 0
-237 -70 -251 -84 -8 -8 -42 -26 -77 -41 -35 -15 -73 -33 -85 -41 -11 -7 -46
-22 -76 -33 -29 -10 -107 -42 -171 -70 -64 -28 -121 -51 -127 -51 -5 0 -24 -7
-43 -16 -81 -41 -96 -47 -148 -64 -121 -41 -168 -59 -218 -84 -47 -24 -65 -27
-170 -29 -116 -2 -119 -1 -161 27 -38 27 -43 28 -58 13 -12 -11 -22 -13 -39
-7 -30 12 -54 3 -54 -18 0 -15 -9 -6 -35 35 -1 2 -84 5 -185 8 -101 3 -192 11
-203 17 -14 7 -72 8 -181 4 -241 -10 -443 -9 -521 3 -68 10 -137 4 -136 -12 1
-4 1 -11 1 -16 0 -5 24 -12 53 -16 28 -3 75 -11 104 -16 38 -8 57 -7 71 2 15
10 36 10 89 2 55 -8 73 -8 96 4 21 11 36 12 60 4 18 -5 86 -10 152 -10 66 0
158 -6 205 -14 95 -16 87 -15 225 -23 60 -4 107 -12 120 -20 25 -18 40 -18 58
0 12 13 21 11 66 -10 36 -18 61 -23 81 -19 15 3 37 2 47 -4 10 -6 72 -17 138
-26 130 -17 136 -18 303 -34 63 -6 117 -13 122 -16 8 -5 150 -22 253 -30 26
-2 68 -13 93 -25 43 -21 46 -21 64 -5 22 20 34 14 80 -40 14 -16 38 -43 53
-59 28 -28 28 -30 11 -43 -18 -13 -18 -16 3 -91 12 -42 29 -99 38 -127 9 -27
23 -70 31 -95 8 -25 14 -79 15 -120 0 -41 9 -111 19 -155 11 -44 21 -118 24
-165 3 -85 46 -310 72 -385 7 -22 14 -57 14 -77 0 -21 7 -59 16 -85 9 -26 16
-65 16 -87 -1 -22 6 -51 13 -65 15 -28 61 -191 57 -204 -4 -14 18 -140 32
-182 8 -22 19 -67 26 -100 15 -74 27 -105 40 -105 18 0 22 47 6 78 -9 17 -18
59 -20 94 -3 35 -10 83 -16 108 -6 25 -15 86 -19 135 -5 50 -14 113 -21 140
-6 28 -13 96 -15 152 -2 56 -6 112 -10 125 -6 18 -5 20 5 11 9 -8 19 -9 35 -1
26 11 26 11 -27 70 -27 30 -28 35 -28 138 0 81 -4 110 -14 119 -11 9 -14 36
-13 109 1 89 0 99 -21 120 -23 23 -23 24 -27 143 -1 41 -7 85 -14 97 -8 16 -9
28 -1 42 6 11 8 36 4 55 -4 22 -2 41 6 50 9 10 9 15 1 15 -6 0 -11 -4 -11 -10
0 -5 -8 -10 -19 -10 -16 0 -20 11 -26 85 -4 47 -11 87 -16 91 -5 3 -9 18 -9
34 0 18 -11 42 -30 64 l-30 34 30 10 c35 13 38 27 10 42 -11 6 -20 17 -20 26
0 12 4 12 20 4 12 -7 27 -33 37 -71 17 -55 20 -59 43 -54 23 5 31 -2 68 -60
43 -69 62 -81 62 -41 0 33 -10 56 -24 56 -17 0 -66 59 -66 80 0 33 -17 66 -55
106 -20 21 -47 55 -60 74 -32 49 -63 80 -80 80 -27 0 -17 44 14 61 26 15 29
15 40 -2 6 -11 20 -19 31 -19 15 0 20 -7 20 -28 0 -16 8 -32 19 -39 11 -7 22
-27 26 -45 4 -18 14 -37 22 -43 7 -6 19 -21 26 -34 7 -14 33 -38 59 -55 45
-30 65 -57 59 -84 -3 -20 30 -27 41 -9 5 10 21 17 38 17 23 0 31 -5 36 -24 6
-25 29 -40 45 -30 18 11 9 43 -20 71 -26 26 -61 110 -61 147 0 16 -5 18 -45
20 -13 1 -23 11 -29 32 -5 17 -24 40 -43 53 -20 13 -42 40 -52 64 -10 23 -26
49 -35 57 -25 20 -73 122 -68 143 5 23 19 22 57 -7 18 -14 36 -40 43 -63 6
-21 25 -59 42 -85 25 -38 34 -44 55 -40 14 2 25 6 25 9 0 9 -55 78 -72 91 -10
7 -18 25 -18 39 0 15 -6 34 -14 42 -16 18 -24 70 -13 88 4 6 21 14 37 18 17 4
35 15 40 26 16 29 46 23 60 -11 15 -37 31 -34 45 6 15 45 24 54 50 54 17 0 29
9 40 29 8 16 24 33 35 36 11 4 32 17 47 31 14 13 29 21 34 18 5 -3 23 11 41
31 29 34 35 36 70 31 30 -5 42 -2 58 14 24 24 117 67 166 76 24 4 39 14 46 30
7 16 20 24 35 24 13 0 26 7 29 15 7 18 90 65 114 65 10 0 28 11 41 25 13 13
29 25 36 25 16 0 31 -48 39 -130 5 -59 4 -70 -9 -70 -17 0 -28 -80 -28 -191 1
-144 -7 -207 -29 -247 -18 -32 -20 -43 -11 -60 16 -30 14 -72 -4 -78 -8 -4
-15 -18 -15 -32 0 -20 3 -23 12 -14 18 18 38 15 38 -5 0 -10 -12 -36 -25 -58
-30 -48 -31 -66 -6 -89 18 -17 18 -20 3 -54 -11 -25 -16 -71 -17 -142 -1 -58
-5 -151 -10 -206 -8 -109 -3 -124 36 -104 26 15 33 8 25 -25 -5 -18 -13 -25
-31 -25 -27 0 -35 -19 -34 -80 1 -52 -7 -139 -16 -187 -4 -25 -4 -43 2 -43 12
0 43 54 43 77 0 10 8 32 18 48 12 20 16 40 12 60 -3 17 -3 47 0 68 5 35 6 37
24 24 25 -19 29 -104 5 -118 -12 -6 -15 -17 -10 -41 4 -17 12 -33 19 -36 15
-5 16 20 1 35 -8 8 -5 14 10 22 18 10 21 21 21 81 0 38 -4 72 -10 75 -14 9
-12 36 4 49 12 9 13 35 6 149 -5 76 -5 150 -2 165 4 15 7 110 6 212 -1 102 2
204 7 227 9 44 10 128 6 506 -2 192 0 220 14 233 15 14 18 13 30 -4 16 -21
109 -52 160 -52 18 0 41 -7 51 -16 11 -11 45 -19 95 -24 51 -4 99 -16 138 -33
44 -20 94 -31 185 -41 69 -8 146 -20 172 -26 32 -8 53 -8 65 -2 13 8 24 4 46
-14 16 -13 40 -24 53 -24 14 0 39 -7 56 -16 24 -13 35 -13 58 -4 16 7 38 9 49
5 27 -8 61 11 61 35 0 17 -7 20 -55 20 -34 0 -88 11 -143 29 -49 17 -131 37
-183 46 -52 9 -123 23 -159 32 -82 19 -165 36 -305 63 -60 11 -123 25 -139 30
-16 6 -51 10 -77 10 -35 0 -51 5 -58 17 -6 11 -21 17 -45 16 -41 -1 -76 33
-76 73 0 30 -16 31 -24 2z m-1228 -826 c6 -9 12 -22 12 -29 0 -7 9 -13 20 -13
19 0 50 -29 102 -96 25 -31 18 -74 -13 -74 -15 0 -19 5 -14 19 8 25 -13 69
-37 77 -10 3 -25 19 -33 35 -16 30 -29 36 -40 19 -14 -23 -35 -10 -35 22 0 17
-8 40 -17 50 -17 19 -16 19 12 13 17 -4 36 -14 43 -23z m-424 -34 c9 -37 7
-39 -14 -18 -23 23 -26 40 -6 40 7 0 16 -10 20 -22z m201 3 c3 -5 1 -12 -5
-16 -5 -3 -10 1 -10 9 0 18 6 21 15 7z m120 -26 c0 -14 -3 -25 -7 -25 -5 0 -8
4 -8 9 0 5 -3 16 -6 25 -4 10 -1 16 7 16 8 0 14 -11 14 -25z m-90 -19 c19 -14
19 -15 -8 -27 -31 -14 -54 -1 -44 25 8 20 27 20 52 2z m-122 -73 c5 -27 3 -33
-11 -33 -10 0 -26 6 -36 13 -17 12 -17 15 0 50 16 32 19 35 29 19 7 -9 15 -32
18 -49z m214 -20 c5 -13 -35 -53 -53 -53 -7 0 -16 5 -19 10 -3 6 -17 10 -31
10 -20 0 -25 4 -22 22 2 14 12 24 28 28 33 8 92 -2 97 -17z m312 -129 c3 -16
1 -17 -13 -5 -19 16 -21 34 -3 29 6 -3 14 -13 16 -24z m69 -77 c2 -22 -1 -37
-8 -37 -15 0 -34 46 -26 65 10 28 31 11 34 -28z m-344 -13 c8 -20 -1 -34 -20
-34 -8 0 -14 8 -14 18 0 33 23 44 34 16z m1244 -292 c2 -7 -6 -12 -17 -12 -21
0 -27 11 -14 24 9 9 26 2 31 -12z"/>
<path d="M7080 9200 c0 -5 5 -10 11 -10 5 0 7 5 4 10 -3 6 -8 10 -11 10 -2 0
-4 -4 -4 -10z"/>
<path d="M8686 9201 c-13 -20 42 -37 141 -44 50 -3 40 17 -12 23 -25 3 -50 11
-57 18 -14 14 -64 16 -72 3z"/>
<path d="M7543 9158 c-6 -8 -15 -191 -22 -438 -6 -234 -16 -562 -22 -730 -6
-168 -13 -372 -15 -455 -2 -82 -4 -159 -5 -170 0 -11 0 -96 0 -189 1 -93 -2
-186 -5 -205 -6 -31 -5 -34 8 -24 10 9 17 41 21 104 3 50 8 94 11 97 3 2 14
-6 25 -19 11 -13 21 -22 22 -19 0 3 3 111 6 240 2 129 8 239 12 243 4 4 21 1
37 -8 16 -8 47 -15 70 -15 22 0 46 -6 53 -12 9 -10 70 -13 224 -15 117 -1 229
-5 250 -8 23 -5 42 -3 51 4 9 8 28 10 50 5 23 -4 42 -2 51 6 8 7 22 9 31 6 9
-3 31 3 50 15 19 11 34 16 34 10 0 -6 9 -11 21 -11 11 0 18 4 15 8 -2 4 16 14
42 21 49 14 72 28 72 42 0 13 22 13 -573 5 -253 -3 -435 -10 -446 -16 -14 -7
-22 -6 -30 4 -15 18 -33 245 -26 336 13 161 21 422 27 815 3 171 8 319 12 331
5 14 2 26 -9 38 -20 19 -29 20 -42 4z m-13 -1918 c0 -11 -4 -20 -10 -20 -5 0
-10 9 -10 20 0 11 5 20 10 20 6 0 10 -9 10 -20z"/>
<path d="M7708 9120 c-18 -16 -43 -30 -55 -30 -16 0 -23 -6 -23 -20 0 -20 13
-28 74 -46 25 -8 31 -17 42 -64 7 -30 13 -98 14 -150 0 -52 4 -100 8 -106 8
-14 91 -38 100 -30 3 3 13 -1 23 -10 32 -29 140 -44 312 -44 89 0 169 1 177 1
8 0 43 -2 77 -6 42 -5 72 -4 95 5 18 7 60 16 92 19 38 4 61 11 64 20 3 9 0 12
-11 8 -8 -3 -23 1 -34 8 -11 9 -30 12 -49 9 -18 -3 -61 3 -103 16 -41 12 -99
21 -134 21 -34 0 -87 2 -117 4 -105 9 -206 15 -319 18 -98 2 -115 5 -120 20
-4 9 -6 66 -6 125 l1 107 35 -2 c19 0 63 -6 99 -13 36 -6 115 -15 175 -20 61
-5 139 -14 175 -19 36 -6 99 -15 140 -20 41 -6 102 -16 135 -22 33 -6 93 -13
133 -16 90 -6 90 -6 103 -183 5 -68 14 -129 19 -134 5 -5 16 -6 24 -3 19 7 19
33 3 232 l-12 140 -65 8 c-36 4 -73 9 -83 10 -10 2 -29 16 -41 32 -19 24 -32
29 -82 33 -32 2 -64 8 -69 13 -11 8 -125 21 -185 20 -21 0 -55 12 -87 30 -36
21 -59 28 -76 24 -14 -4 -42 -2 -63 4 -30 8 -43 7 -59 -3 -12 -8 -27 -11 -36
-6 -8 4 -45 13 -84 20 -38 6 -86 16 -106 21 -55 14 -65 12 -101 -21z m337
-440 c-3 -5 -12 -10 -20 -10 -8 0 -17 5 -20 10 -4 6 5 10 20 10 15 0 24 -4 20
-10z m125 0 c0 -5 -9 -10 -19 -10 -11 0 -23 5 -26 10 -4 6 5 10 19 10 14 0 26
-4 26 -10z"/>
<path d="M6370 8901 c-14 -28 -13 -31 14 -31 20 0 25 -6 28 -32 4 -43 28 -50
28 -8 0 31 -33 90 -50 90 -5 0 -14 -9 -20 -19z"/>
<path d="M8957 8863 c-14 -13 -6 -49 17 -77 l24 -29 16 31 c20 39 20 37 -6 62
-22 21 -40 25 -51 13z"/>
<path d="M6445 8780 c3 -5 11 -10 16 -10 6 0 7 5 4 10 -3 6 -11 10 -16 10 -6
0 -7 -4 -4 -10z"/>
<path d="M1972 8739 c-9 -4 -64 -8 -122 -9 -58 -1 -136 -4 -175 -6 -38 -2 -83
-4 -100 -5 -16 0 -37 -3 -45 -6 -15 -7 -76 -12 -139 -13 -18 0 -40 -5 -47 -11
-11 -9 -14 -8 -14 2 0 10 -4 9 -17 -3 -13 -14 -14 -20 -4 -32 15 -17 8 -46
-10 -46 -6 0 -13 9 -16 19 -3 12 -11 17 -19 14 -14 -5 -20 -83 -8 -96 4 -4 8
-48 9 -99 1 -51 7 -140 13 -198 6 -58 18 -204 27 -325 9 -121 23 -258 31 -305
7 -47 14 -118 14 -158 0 -77 17 -134 29 -99 4 10 3 59 -1 110 -4 51 -5 104 -2
118 3 15 -2 64 -10 110 -15 85 -22 186 -32 469 -3 85 -10 162 -15 172 -5 9 -9
37 -9 61 0 25 -7 61 -16 82 -19 45 -12 68 18 63 24 -3 30 -26 44 -168 3 -30
10 -59 14 -65 5 -5 11 -53 15 -105 4 -52 11 -99 15 -105 5 -5 11 -35 14 -65 3
-30 10 -98 15 -150 10 -91 40 -437 46 -510 3 -41 15 -48 34 -19 13 22 9 143
-20 542 -5 76 -7 142 -4 147 3 5 1 37 -4 72 -6 35 -15 117 -20 183 -6 66 -17
160 -26 208 -23 134 -46 124 282 126 386 3 546 12 568 32 13 13 49 11 63 -3 7
-7 15 -8 24 -1 9 6 61 6 153 0 77 -5 201 -9 275 -8 74 1 148 -4 166 -9 24 -8
37 -7 60 5 22 12 46 14 100 9 81 -7 117 0 112 24 -4 19 -53 23 -249 21 -75 0
-145 3 -155 9 -11 5 -39 7 -64 3 -35 -5 -53 -2 -78 12 -24 14 -41 17 -65 12
-17 -4 -68 -7 -112 -7 -44 1 -180 3 -303 4 -122 2 -230 0 -240 -3z"/>
<path d="M3286 8704 c-20 -19 -21 -54 -3 -54 21 0 50 37 44 55 -8 19 -21 19
-41 -1z"/>
<path d="M9097 8713 c-9 -8 -7 -71 3 -103 6 -18 8 -7 9 43 1 67 0 73 -12 60z"/>
<path d="M3393 8703 c-33 -4 -47 -23 -17 -23 9 0 29 -8 45 -17 37 -22 58 -7
37 26 -7 11 -17 20 -23 19 -5 0 -25 -3 -42 -5z"/>
<path d="M6536 8674 c-19 -18 -12 -30 19 -36 15 -2 20 3 20 21 0 30 -18 37
-39 15z"/>
<path d="M6440 8623 c0 -23 15 -39 24 -25 3 5 -1 18 -9 28 -14 18 -14 18 -15
-3z"/>
<path d="M8990 8498 c0 -73 -2 -173 -5 -223 -11 -186 -10 -404 2 -416 8 -8 13
2 17 42 13 122 19 431 12 604 -5 122 -5 125 -17 125 -7 0 -10 -44 -9 -132z"/>
<path d="M6490 8570 c20 -13 33 -13 25 0 -3 6 -14 10 -23 10 -15 0 -15 -2 -2
-10z"/>
<path d="M6610 8550 c0 -5 5 -10 10 -10 6 0 10 5 10 10 0 6 -4 10 -10 10 -5 0
-10 -4 -10 -10z"/>
<path d="M9098 8538 c-4 -10 -7 -100 -7 -200 -1 -101 -4 -250 -9 -333 -4 -82
-5 -193 -1 -245 4 -52 5 -111 2 -131 -3 -20 0 -62 7 -95 21 -99 29 -37 24 187
-2 112 -5 213 -5 224 -1 11 0 106 3 210 6 201 -2 412 -14 383z"/>
<path d="M6555 8510 c3 -5 8 -10 11 -10 2 0 4 5 4 10 0 6 -5 10 -11 10 -5 0
-7 -4 -4 -10z"/>
<path d="M6578 8465 c2 -14 8 -28 13 -31 5 -3 9 -14 9 -25 0 -10 7 -19 15 -19
8 0 15 4 15 8 0 15 -30 69 -44 81 -11 9 -12 6 -8 -14z"/>
<path d="M1746 8465 c-21 -21 -22 -119 -1 -168 8 -20 17 -81 19 -141 3 -58 12
-126 21 -151 8 -25 15 -67 15 -93 0 -26 4 -63 10 -82 5 -19 12 -82 15 -140 3
-58 9 -150 13 -205 5 -59 4 -121 -1 -153 -7 -35 -6 -65 1 -90 16 -58 32 -154
32 -196 0 -20 5 -47 11 -58 6 -11 13 -64 15 -117 2 -53 9 -120 15 -150 6 -30
12 -100 14 -155 2 -56 5 -121 9 -146 3 -25 13 -119 22 -210 8 -91 20 -178 25
-195 5 -16 9 -68 10 -115 1 -52 7 -98 17 -120 16 -37 31 -144 36 -270 11 -234
27 -385 43 -403 14 -15 15 -23 5 -50 -14 -39 -1 -217 22 -292 8 -27 18 -84 22
-125 3 -41 15 -117 25 -169 11 -51 19 -110 19 -131 0 -21 7 -57 16 -81 8 -24
17 -84 20 -134 3 -49 11 -115 19 -145 17 -69 35 -178 35 -215 0 -16 4 -42 9
-59 5 -17 18 -58 27 -91 10 -33 22 -64 27 -70 4 -5 45 -11 90 -12 45 -1 129
-4 187 -6 76 -4 117 -1 150 9 24 9 88 16 141 17 57 2 102 7 111 14 9 8 35 11
71 8 36 -3 61 0 69 8 7 6 29 12 48 13 19 1 64 9 100 18 39 11 88 16 123 14 39
-3 61 0 69 9 6 8 34 13 74 13 52 0 65 3 73 19 10 18 5 19 -125 16 -87 -2 -140
-7 -149 -15 -10 -8 -32 -10 -69 -6 -34 5 -56 3 -61 -3 -8 -14 -48 -14 -62 0
-8 8 -17 5 -32 -10 -25 -25 -30 -25 -57 -7 -25 18 -87 20 -169 7 -33 -6 -68
-8 -79 -5 -10 3 -38 0 -62 -6 -53 -15 -121 -1 -171 36 -17 13 -35 24 -40 24
-5 0 -16 9 -26 20 -10 12 -22 18 -28 15 -11 -8 7 -35 23 -35 13 0 47 -42 48
-57 0 -26 -68 -3 -93 31 -17 22 -60 10 -52 -14 8 -25 -21 -33 -55 -15 -25 13
-29 21 -29 53 1 20 -2 49 -6 64 -6 22 -4 27 16 30 23 3 23 4 -13 43 l-36 40 7
140 c7 128 7 142 -10 161 -12 12 -19 35 -19 58 0 20 -6 49 -14 64 -18 36 -18
144 0 188 12 28 13 43 4 69 -17 53 -33 199 -35 333 -1 76 -7 128 -14 135 -6 6
-11 18 -11 26 0 8 -7 22 -16 32 -14 16 -14 20 -2 38 12 16 13 32 5 73 -12 68
-42 153 -53 153 -5 0 -11 -20 -15 -45 -5 -48 -10 -40 -23 39 -5 29 -4 33 13
28 26 -6 33 14 25 74 -6 42 -10 49 -28 49 -18 0 -24 8 -32 53 -15 76 -12 132
6 132 8 0 20 -14 25 -32 13 -41 25 -52 25 -25 0 11 -4 24 -10 27 -5 3 -10 17
-10 31 0 17 -5 24 -20 24 -25 0 -35 22 -21 48 8 16 5 24 -15 43 -16 15 -23 31
-20 43 3 10 -1 31 -9 45 -8 17 -16 82 -20 176 -3 83 -9 182 -11 220 -10 129
-9 143 10 164 12 14 16 26 11 38 -5 10 -9 52 -11 93 -1 41 -5 86 -8 100 -3 14
-7 70 -10 125 -2 55 -9 111 -14 125 -34 86 -39 139 -15 147 26 9 67 -149 83
-318 14 -159 17 -169 38 -169 46 1 56 41 32 130 -13 50 -40 233 -46 312 -4 58
-3 67 10 62 15 -6 25 -34 41 -111 8 -40 21 -50 30 -23 4 12 -1 33 -13 53 -11
17 -26 54 -33 80 -8 27 -22 53 -31 58 -12 7 -18 6 -18 -1 0 -6 -4 -8 -10 -5
-13 8 -13 75 -1 75 5 0 12 -8 14 -17 2 -10 3 0 1 22 -2 22 -5 71 -5 110 -1 38
-6 80 -12 92 -7 16 -7 26 1 36 18 21 0 70 -29 77 -22 5 -24 11 -25 60 0 30 -4
71 -8 90 -8 31 -7 33 7 22 19 -16 36 -66 35 -105 -1 -56 19 -51 38 10 24 78
50 96 72 48 13 -28 42 -34 42 -9 0 24 -19 54 -35 54 -16 0 -45 49 -45 75 0 11
21 -1 67 -39 54 -45 71 -54 93 -49 15 3 31 0 34 -6 11 -18 26 -13 26 9 0 12
-9 24 -22 29 -38 14 -63 50 -64 91 l-1 37 38 -21 c69 -39 120 -77 126 -92 5
-13 117 -74 136 -74 4 0 7 7 7 14 0 20 -56 73 -98 93 -18 9 -45 31 -59 49 -14
19 -31 34 -37 34 -17 0 -66 49 -66 65 0 10 10 15 28 15 21 0 37 -10 59 -37 21
-27 44 -42 77 -52 25 -7 50 -20 55 -28 4 -9 19 -17 32 -18 13 -2 32 -7 43 -11
14 -5 17 -3 14 7 -2 8 -14 15 -25 17 -17 3 -26 14 -51 64 -2 4 17 5 42 2 39
-6 46 -4 46 10 0 19 -46 70 -69 77 -18 6 -5 29 16 29 8 0 31 -13 50 -30 18
-16 42 -30 52 -30 11 0 33 -17 49 -37 l30 -38 31 29 c30 29 36 51 7 27 -12
-10 -19 -8 -38 11 -12 13 -32 28 -43 33 -11 6 -20 16 -19 23 1 7 2 26 3 43 1
29 3 31 29 25 15 -4 36 -18 48 -32 11 -14 34 -27 49 -29 16 -1 35 -11 42 -21
9 -13 24 -17 52 -16 22 2 42 -2 46 -8 3 -5 24 -19 46 -29 31 -15 39 -16 39 -5
0 8 -6 14 -14 14 -8 0 -21 8 -28 18 -18 23 -105 82 -123 82 -19 0 -143 68
-181 99 -37 31 -91 63 -119 71 -11 3 -21 16 -23 28 -3 16 -12 25 -33 29 -15 3
-34 11 -40 19 -8 10 -5 15 14 19 38 10 102 2 100 -12 -2 -7 -4 -19 -5 -25 -2
-9 11 -14 37 -15 59 -3 114 -14 121 -24 3 -5 0 -18 -6 -29 -9 -16 -8 -20 5
-20 9 0 15 9 15 24 0 22 16 36 41 36 5 0 9 -12 9 -26 0 -23 3 -25 31 -19 23 5
36 2 52 -12 48 -41 132 -65 132 -38 0 6 -7 9 -16 8 -9 -1 -25 7 -34 17 -10 11
-22 20 -27 20 -21 0 -62 42 -64 67 -4 40 6 47 32 22 16 -15 28 -19 41 -14 10
5 143 9 296 11 257 2 278 1 287 -16 5 -9 7 -20 4 -23 -14 -13 37 -27 68 -19
l33 9 -27 13 c-16 7 -28 19 -28 26 0 23 37 25 86 3 35 -14 60 -19 87 -15 43 7
51 -13 15 -38 -27 -19 -18 -32 11 -15 17 11 26 10 56 -4 28 -14 41 -15 57 -6
20 11 20 12 -13 26 -58 24 -62 61 -5 48 44 -11 130 -15 296 -15 80 -1 159 -5
177 -11 26 -8 192 -18 338 -19 22 0 57 -8 77 -17 34 -14 39 -14 62 0 16 11 35
14 61 10 30 -5 39 -2 51 16 19 26 44 27 51 2 6 -25 34 -32 77 -20 27 7 45 5
88 -12 45 -18 77 -21 208 -23 85 -1 162 -6 170 -11 8 -5 23 -19 33 -31 10 -13
26 -26 37 -29 11 -4 20 -15 20 -26 0 -15 6 -20 23 -17 18 2 21 9 19 31 -2 17
3 29 13 33 22 9 45 -14 45 -43 0 -14 10 -39 22 -55 17 -25 19 -34 9 -50 -9
-15 -8 -25 6 -48 16 -28 16 -32 1 -63 -32 -61 -33 -100 -3 -151 17 -30 34 -46
46 -46 31 0 50 -22 34 -40 -18 -22 -35 -78 -28 -96 3 -8 15 -14 27 -12 19 3
22 -3 28 -72 4 -41 9 -102 12 -135 2 -33 11 -80 20 -104 9 -24 16 -62 16 -85
0 -22 9 -88 20 -146 11 -58 24 -152 30 -210 22 -218 29 -277 45 -333 8 -32 15
-72 15 -88 0 -22 6 -32 19 -36 13 -3 21 -15 23 -36 4 -37 28 -50 28 -15 0 14
-3 28 -7 32 -12 12 -32 87 -27 101 3 7 0 39 -6 72 -6 32 -17 126 -25 208 -8
83 -21 200 -29 260 -8 61 -17 155 -21 210 -3 55 -11 137 -16 183 -9 67 -8 86
3 99 11 14 14 9 19 -38 9 -71 25 -129 39 -143 13 -11 13 -14 -10 239 -5 55
-11 127 -14 160 -2 33 -11 94 -20 135 -9 41 -16 93 -16 116 0 28 -6 47 -20 59
-16 15 -20 31 -20 86 0 82 -5 96 -41 114 -36 19 -39 19 -39 -4 0 -11 -6 -26
-12 -33 -7 -7 -13 -22 -13 -32 0 -11 -6 -21 -12 -23 -19 -7 -29 27 -12 39 12
8 12 10 0 15 -7 3 -22 16 -34 29 -11 13 -24 21 -29 18 -4 -3 -13 -2 -18 1 -11
7 5 46 18 44 25 -4 42 4 47 22 9 28 -7 44 -32 31 -30 -16 -83 11 -83 43 0 22
-4 25 -37 26 -21 0 -186 2 -368 5 -374 6 -451 10 -482 26 -16 8 -42 9 -85 2
-35 -5 -112 -6 -173 -2 -68 5 -121 4 -139 -2 -38 -13 -99 -13 -113 1 -7 7 -32
7 -84 -1 -86 -13 -123 -14 -127 0 -2 5 -9 7 -17 4 -7 -3 -22 -1 -33 5 -25 13
-233 22 -247 11 -6 -5 -73 -10 -150 -11 -137 -2 -141 -2 -179 24 -46 32 -66
34 -66 7 0 -29 -19 -25 -69 15 -45 36 -94 51 -133 42 -13 -3 -45 -2 -73 3 -38
6 -56 5 -73 -7 -20 -12 -31 -12 -72 -2 -39 10 -79 9 -228 -6 -139 -13 -188
-15 -214 -6 -19 6 -84 11 -144 11 -168 0 -268 4 -282 14 -7 4 -69 7 -137 7
-98 -1 -130 2 -149 14 -22 14 -25 14 -40 0z m1354 -96 c0 -6 -4 -7 -10 -4 -5
3 -10 11 -10 16 0 6 5 7 10 4 6 -3 10 -11 10 -16z m-1130 -64 c11 -13 8 -15
-14 -15 -25 0 -33 10 -19 23 10 11 19 8 33 -8z m-102 -25 c3 -21 2 -22 -12
-11 -19 16 -21 44 -3 39 6 -3 14 -15 15 -28z m286 11 c7 -11 -21 -81 -32 -81
-9 0 -42 64 -42 80 0 13 67 13 74 1z m593 -17 c3 -9 0 -20 -8 -24 -15 -10 -39
6 -39 26 0 19 39 18 47 -2z m113 -11 c0 -10 -5 -25 -10 -33 -13 -21 -34 2 -25
29 8 25 35 28 35 4z m-528 -38 c9 -20 9 -28 -1 -38 -18 -18 -56 29 -40 49 17
20 28 17 41 -11z m-79 -14 c-3 -10 3 -31 12 -45 20 -31 15 -44 -8 -22 -9 9
-27 20 -41 26 -34 12 -34 40 -1 40 14 0 25 5 25 10 0 6 4 10 9 10 5 0 7 -9 4
-19z m167 -50 c18 -35 11 -45 -15 -21 -14 13 -25 27 -25 32 0 16 29 8 40 -11z
m191 -66 c61 -39 70 -81 10 -51 -16 9 -39 16 -49 16 -29 0 -48 26 -32 45 17
20 24 19 71 -10z m-132 -14 c6 -10 7 -21 4 -25 -9 -8 -33 14 -33 30 0 20 18
17 29 -5z m3339 -115 c2 -9 1 -25 -3 -34 -5 -14 -7 -14 -15 -2 -14 22 -12 62
3 58 6 -3 14 -12 15 -22z m-3356 -23 c20 -18 23 -38 8 -48 -12 -7 -50 30 -50
50 0 20 19 19 42 -2z m3365 -95 c-3 -8 -6 -5 -6 6 -1 11 2 17 5 13 3 -3 4 -12
1 -19z m110 -110 c-3 -8 -6 -5 -6 6 -1 11 2 17 5 13 3 -3 4 -12 1 -19z m-3897
-383 c0 -8 -4 -15 -10 -15 -5 0 -10 7 -10 15 0 8 5 15 10 15 6 0 10 -7 10 -15z
m125 -2153 c6 -27 -10 -90 -20 -80 -12 12 -22 97 -12 107 14 14 24 5 32 -27z
m9 -324 c8 -72 8 -90 -3 -84 -14 9 -33 93 -26 115 11 35 22 24 29 -31z m211
-1298 c3 -5 -1 -10 -9 -10 -9 0 -16 5 -16 10 0 6 4 10 9 10 6 0 13 -4 16 -10z
m592 -6 c-3 -3 -12 -4 -19 -1 -8 3 -5 6 6 6 11 1 17 -2 13 -5z"/>
<path d="M7754 8339 c-4 -7 1 -16 10 -21 25 -14 19 -28 -13 -28 -16 0 -31 -6
-34 -13 -8 -20 1 -125 12 -146 6 -11 11 -28 11 -39 0 -10 8 -26 18 -35 15 -14
25 -15 55 -6 21 5 41 8 46 5 15 -10 445 -8 511 2 36 5 141 10 234 11 174 3
199 6 193 25 -4 11 -93 23 -222 29 -38 2 -90 9 -115 16 -24 7 -56 9 -70 5 -14
-4 -113 -6 -220 -5 -154 2 -200 6 -218 17 -21 14 -26 14 -44 -2 -19 -18 -21
-18 -50 -1 -16 9 -36 17 -44 17 -26 0 -14 15 19 26 19 6 46 7 63 2 17 -5 40
-4 55 2 18 8 34 8 54 0 37 -14 97 4 88 27 -4 11 -1 14 12 12 10 -2 17 -8 16
-13 -5 -18 23 -23 109 -22 58 1 93 6 104 15 15 13 18 12 23 -7 6 -25 28 -29
37 -7 3 9 19 15 41 15 33 0 48 -14 23 -22 -17 -6 0 -28 21 -28 9 0 22 5 27 10
7 7 19 8 37 1 31 -12 60 -4 53 15 -9 25 22 39 59 25 19 -7 51 -9 76 -5 36 5
42 4 32 -7 -20 -21 -15 -29 17 -29 31 0 41 14 16 23 -7 3 -16 18 -19 34 -12
52 -20 57 -119 64 -104 7 -308 18 -468 24 -58 2 -132 8 -165 13 -37 6 -79 7
-108 1 -29 -5 -67 -5 -98 1 -63 12 -56 12 -65 -1z m100 -44 c-4 -8 -8 -15 -10
-15 -2 0 -4 7 -4 15 0 8 4 15 10 15 5 0 7 -7 4 -15z"/>
<path d="M8890 8259 c0 -29 24 -139 30 -139 10 0 20 104 13 129 -6 22 -43 30
-43 10z"/>
<path d="M6586 8238 c12 -42 64 -138 74 -138 17 0 22 21 15 66 -4 28 -11 44
-20 44 -8 0 -22 11 -31 25 -21 32 -48 34 -38 3z"/>
<path d="M3930 8205 c-10 -12 -10 -15 4 -15 9 0 16 7 16 15 0 8 -2 15 -4 15
-2 0 -9 -7 -16 -15z"/>
<path d="M6460 8211 c0 -6 5 -13 10 -16 6 -3 10 1 10 9 0 9 -4 16 -10 16 -5 0
-10 -4 -10 -9z"/>
<path d="M3417 8204 c-3 -4 -2 -15 4 -26 6 -11 8 -29 5 -41 -6 -26 10 -57 31
-57 15 0 15 2 0 18 -20 22 -22 43 -5 60 10 10 8 17 -8 32 -11 11 -23 18 -27
14z"/>
<path d="M3662 8178 c3 -7 15 -15 27 -16 16 -3 22 1 19 10 -3 7 -15 15 -27 16
-16 3 -22 -1 -19 -10z"/>
<path d="M3260 8165 c0 -8 5 -15 10 -15 6 0 10 7 10 15 0 8 -4 15 -10 15 -5 0
-10 -7 -10 -15z"/>
<path d="M3322 8158 c7 -20 48 -23 48 -4 0 11 -9 16 -26 16 -16 0 -24 -5 -22
-12z"/>
<path d="M3620 8131 c0 -11 9 -25 19 -31 17 -9 18 -7 12 17 -9 32 -31 43 -31
14z"/>
<path d="M3830 8091 c0 -10 69 -25 77 -17 3 2 2 9 -2 15 -8 13 -75 15 -75 2z"/>
<path d="M8865 8070 c3 -5 8 -10 11 -10 2 0 4 5 4 10 0 6 -5 10 -11 10 -5 0
-7 -4 -4 -10z"/>
<path d="M6450 8061 c0 -6 5 -13 10 -16 6 -3 10 1 10 9 0 9 -4 16 -10 16 -5 0
-10 -4 -10 -9z"/>
<path d="M3940 8040 c0 -22 51 -44 80 -35 16 5 29 0 50 -20 19 -18 35 -25 46
-21 15 6 15 9 1 29 -8 12 -25 23 -38 25 -13 2 -33 7 -44 12 -11 5 -37 13 -57
19 -34 8 -38 7 -38 -9z"/>
<path d="M3562 8034 c1 -9 9 -19 16 -22 9 -3 13 2 10 14 -1 9 -9 19 -16 22 -9
3 -13 -2 -10 -14z"/>
<path d="M5400 8031 c0 -6 5 -13 10 -16 6 -3 10 1 10 9 0 9 -4 16 -10 16 -5 0
-10 -4 -10 -9z"/>
<path d="M5532 7978 c6 -16 33 -22 56 -13 14 5 14 7 2 15 -22 14 -62 12 -58
-2z"/>
<path d="M5663 7974 c-3 -8 2 -23 11 -32 15 -15 17 -15 33 0 13 14 14 20 3 32
-16 20 -39 20 -47 0z"/>
<path d="M2650 7845 c0 -8 7 -15 16 -15 9 0 22 -7 29 -16 6 -9 19 -15 29 -13
16 4 15 7 -9 32 -30 29 -65 36 -65 12z"/>
<path d="M3075 7850 c3 -5 13 -10 21 -10 8 0 12 5 9 10 -3 6 -13 10 -21 10 -8
0 -12 -4 -9 -10z"/>
<path d="M8988 7785 c-3 -14 -1 -28 3 -31 5 -3 9 9 9 25 0 38 -6 40 -12 6z"/>
<path d="M7362 7648 c-16 -16 -15 -43 3 -58 13 -11 15 -7 15 29 0 45 -1 46
-18 29z"/>
<path d="M2360 7625 c0 -8 22 -24 50 -36 28 -12 50 -25 50 -30 0 -5 5 -9 10
-9 20 0 9 30 -17 47 -16 10 -34 23 -41 30 -18 18 -52 16 -52 -2z"/>
<path d="M2200 7625 c0 -3 11 -18 25 -32 21 -24 25 -25 31 -10 10 27 -3 47
-31 47 -14 0 -25 -2 -25 -5z"/>
<path d="M8598 7553 c7 -3 16 -2 19 1 4 3 -2 6 -13 5 -11 0 -14 -3 -6 -6z"/>
<path d="M2180 7536 c0 -9 5 -16 10 -16 6 0 10 4 10 9 0 6 -4 13 -10 16 -5 3
-10 -1 -10 -9z"/>
<path d="M7270 7531 c-13 -26 -13 -84 2 -115 9 -21 8 -29 -5 -44 -13 -15 -17
-39 -17 -113 0 -90 10 -132 27 -115 4 4 9 35 10 69 2 105 11 135 41 139 14 2
28 9 30 17 3 9 0 12 -11 8 -10 -4 -17 2 -21 16 -9 35 -7 87 4 87 6 0 10 -4 10
-10 0 -16 17 -11 25 7 3 10 1 19 -6 22 -6 2 -21 14 -32 27 -25 29 -43 30 -57
5z"/>
<path d="M7371 7534 c0 -11 3 -14 6 -6 3 7 2 16 -1 19 -3 4 -6 -2 -5 -13z"/>
<path d="M8951 7541 c-19 -12 -6 -43 16 -39 10 2 18 12 18 22 0 22 -14 29 -34
17z"/>
<path d="M6350 7483 c0 -23 5 -45 10 -48 13 -8 13 55 0 75 -7 11 -10 4 -10
-27z"/>
<path d="M9087 7440 c-14 -51 -1 -670 14 -670 10 0 10 631 0 668 l-7 27 -7
-25z"/>
<path d="M1382 7285 c0 -72 10 -116 22 -97 8 14 -1 104 -15 137 -5 13 -8 0 -7
-40z"/>
<path d="M1513 7230 c-1 -61 2 -80 12 -80 16 0 26 102 13 138 -14 42 -23 22
-25 -58z"/>
<path d="M6017 7153 c-14 -13 -7 -63 8 -63 9 0 15 9 15 23 0 26 -14 50 -23 40z"/>
<path d="M7325 7120 c-3 -5 1 -10 9 -10 9 0 16 5 16 10 0 6 -4 10 -9 10 -6 0
-13 -4 -16 -10z"/>
<path d="M7244 7089 c-3 -6 0 -18 9 -26 18 -18 37 -9 37 18 0 21 -34 27 -46 8z"/>
<path d="M1402 7039 c-14 -59 -15 -89 -4 -89 11 0 32 61 32 91 0 50 -16 50
-28 -2z"/>
<path d="M7546 7064 c-9 -24 -7 -92 3 -98 12 -8 21 18 21 64 0 41 -14 61 -24
34z"/>
<path d="M1537 7063 c-11 -10 -8 -113 2 -113 11 0 41 56 41 75 0 16 -35 47
-43 38z"/>
<path d="M6055 7047 c-4 -10 -3 -23 4 -30 16 -16 26 0 14 25 -10 21 -11 22
-18 5z"/>
<path d="M6395 7001 c-3 -5 -1 -12 5 -16 5 -3 10 1 10 9 0 18 -6 21 -15 7z"/>
<path d="M7257 7004 c-10 -10 -9 -52 2 -59 14 -8 43 25 39 44 -3 17 -29 26
-41 15z"/>
<path d="M6060 6936 c0 -17 5 -26 16 -26 10 0 14 7 12 22 -5 32 -28 35 -28 4z"/>
<path d="M8165 6913 c-27 -7 -88 -14 -135 -14 -84 -1 -202 -5 -395 -13 -55 -2
-99 -6 -97 -10 1 -3 2 -26 2 -51 0 -32 4 -45 14 -45 8 0 16 7 20 15 8 22 81
20 105 -4 18 -18 36 -18 342 -15 212 3 334 8 356 16 24 9 38 9 57 0 22 -10 27
-9 37 9 9 17 17 20 44 15 26 -5 36 -3 43 10 11 19 17 21 107 30 33 4 72 15 87
25 14 11 36 19 48 19 19 0 20 2 10 15 -7 8 -17 12 -22 9 -14 -9 -529 -12 -553
-4 -11 4 -42 1 -70 -7z"/>
<path d="M1417 6875 c7 -49 13 -58 13 -19 0 16 -5 36 -10 44 -6 10 -7 2 -3
-25z"/>
<path d="M7235 6891 c-8 -15 3 -31 21 -31 9 0 14 7 12 17 -4 20 -24 28 -33 14z"/>
<path d="M7327 6846 c-4 -10 -5 -21 -2 -24 9 -9 17 6 13 25 -3 17 -4 17 -11
-1z"/>
<path d="M1565 6819 c-10 -15 3 -25 16 -12 7 7 7 13 1 17 -6 3 -14 1 -17 -5z"/>
<path d="M6435 6820 c3 -5 8 -10 11 -10 2 0 4 5 4 10 0 6 -5 10 -11 10 -5 0
-7 -4 -4 -10z"/>
<path d="M1554 6765 c-9 -23 3 -45 26 -45 22 0 25 12 10 41 -13 23 -28 25 -36
4z"/>
<path d="M1433 6724 c4 -21 7 -48 7 -58 0 -15 3 -17 11 -9 13 13 3 89 -13 100
-8 4 -9 -6 -5 -33z"/>
<path d="M7324 6745 c-8 -19 2 -45 16 -45 5 0 10 14 10 30 0 31 -16 41 -26 15z"/>
<path d="M350 6695 c-6 -8 -26 -19 -43 -25 -25 -8 -41 -27 -72 -82 -25 -45
-53 -80 -77 -95 -20 -14 -42 -37 -48 -53 -18 -42 -15 -397 3 -538 20 -148 29
-160 31 -40 1 57 17 66 32 18 9 -26 9 -37 0 -42 -8 -5 -5 -20 10 -50 12 -24
34 -69 49 -100 15 -31 33 -59 42 -62 43 -17 42 -19 39 252 -2 141 -7 277 -11
302 -7 42 -5 47 26 74 27 25 35 27 52 17 21 -14 33 -6 39 24 4 25 46 33 54 11
3 -9 16 -16 28 -16 30 0 37 -9 24 -30 -13 -20 -3 -55 12 -45 5 3 10 19 10 34
0 20 6 30 20 34 18 4 19 9 10 33 -15 38 -2 46 49 28 24 -8 46 -13 48 -10 10
10 -81 86 -103 86 -13 0 -24 5 -24 10 0 6 8 10 18 10 10 0 23 5 30 12 17 17
15 68 -2 68 -17 0 -69 67 -62 79 4 5 15 7 25 4 10 -3 30 2 43 11 13 8 37 15
53 15 17 0 53 2 80 3 28 2 67 0 89 -5 24 -5 43 -4 51 3 7 5 26 7 42 4 18 -4
33 -1 37 5 10 16 64 14 126 -5 37 -11 55 -13 58 -5 2 6 20 8 47 4 39 -5 45 -3
60 21 13 19 15 30 7 38 -7 7 -155 11 -451 14 -365 2 -442 0 -451 -11z m15
-104 c-3 -6 -11 -11 -17 -11 -6 0 -6 6 2 15 14 17 26 13 15 -4z m85 -11 c0 -5
14 -10 30 -10 25 0 30 -4 30 -24 0 -24 16 -36 51 -36 23 0 26 -32 4 -50 -22
-18 -59 3 -85 47 -20 35 -47 43 -56 18 -10 -25 -36 -18 -29 8 4 12 9 30 11 40
6 18 44 24 44 7z m-80 -131 c9 -16 7 -23 -12 -39 -13 -10 -27 -16 -32 -13 -5
3 -1 10 8 15 15 8 15 11 -4 35 -11 14 -17 29 -14 34 7 13 41 -7 54 -32z m150
-39 c0 -13 -7 -13 -31 1 -11 5 -17 14 -14 20 7 11 45 -7 45 -21z m-280 -614
c0 -6 -7 -2 -15 8 -8 11 -15 25 -15 30 0 6 7 2 15 -8 8 -11 15 -25 15 -30z"/>
<path d="M7235 6697 c-4 -10 -5 -21 -1 -24 10 -10 18 4 13 24 -4 17 -4 17 -12
0z"/>
<path d="M8978 6660 c-4 -106 -6 -131 -14 -148 -11 -25 -14 -371 -3 -377 5 -4
9 -33 9 -65 0 -58 13 -88 24 -53 3 10 6 122 6 248 1 127 3 271 3 322 1 62 -2
96 -10 105 -10 10 -13 3 -15 -32z"/>
<path d="M7530 6675 c0 -8 5 -15 10 -15 6 0 10 7 10 15 0 8 -4 15 -10 15 -5 0
-10 -7 -10 -15z"/>
<path d="M1583 6630 c-8 -32 -8 -50 -1 -64 11 -20 11 -20 21 2 6 13 7 37 1 64
l-9 42 -12 -44z"/>
<path d="M6470 6663 c0 -14 19 -38 25 -32 8 8 -5 39 -16 39 -5 0 -9 -3 -9 -7z"/>
<path d="M7305 6640 c-3 -5 -1 -10 4 -10 6 0 11 5 11 10 0 6 -2 10 -4 10 -3 0
-8 -4 -11 -10z"/>
<path d="M1450 6592 c0 -51 -14 -54 -42 -6 -11 19 -24 32 -29 27 -5 -5 -1 -46
8 -93 16 -87 18 -129 24 -350 2 -90 7 -133 18 -153 11 -20 13 -32 5 -45 -5 -9
-7 -30 -3 -47 4 -16 7 -53 8 -81 1 -62 21 -164 31 -164 16 0 18 31 10 127 -5
54 -11 193 -15 308 -5 186 -5 208 8 190 15 -19 16 -18 22 17 4 22 2 45 -6 59
-7 14 -14 67 -15 128 -1 59 -7 108 -13 114 -8 8 -11 0 -11 -31z"/>
<path d="M6110 6536 c0 -14 5 -28 10 -31 6 -3 10 5 10 19 0 14 -4 28 -10 31
-6 3 -10 -5 -10 -19z"/>
<path d="M1596 6478 c4 -18 8 -48 8 -67 1 -19 7 -36 14 -39 10 -3 12 9 6 59
-7 70 -10 79 -25 79 -7 0 -8 -12 -3 -32z"/>
<path d="M9286 6451 c-28 -3 -52 -12 -57 -21 -4 -8 -18 -37 -31 -65 -13 -27
-31 -61 -40 -75 -9 -14 -20 -46 -23 -72 -4 -26 -15 -54 -26 -64 -10 -9 -19
-27 -19 -39 0 -11 -4 -25 -10 -31 -12 -12 -12 0 -6 -304 3 -140 10 -258 16
-274 6 -16 8 -37 5 -46 -8 -24 11 -35 20 -12 4 9 9 145 11 300 2 156 8 311 14
345 11 64 28 107 41 107 4 0 6 -148 5 -328 -3 -293 -5 -331 -20 -355 -16 -23
-16 -32 -6 -74 7 -26 12 -60 11 -75 0 -16 0 -38 0 -50 1 -13 2 -104 2 -203 1
-99 6 -192 11 -207 7 -23 5 -28 -8 -28 -19 0 -20 -21 -3 -78 16 -53 31 -51 34
3 1 22 7 65 13 95 6 30 12 111 15 180 2 69 6 166 8 215 3 50 8 175 12 279 3
105 9 194 12 199 7 12 6 395 -2 407 -3 6 0 18 7 29 12 16 18 17 48 7 30 -9 35
-16 38 -44 3 -28 7 -33 22 -29 28 7 52 -15 48 -44 -4 -32 -34 -27 -70 12 -15
16 -36 29 -48 29 -18 0 -21 -5 -18 -37 3 -33 7 -39 36 -47 36 -10 40 -25 15
-67 -24 -40 -6 -57 31 -28 15 12 28 20 30 18 1 -2 10 -16 19 -31 11 -18 22
-25 35 -21 10 2 24 -3 31 -11 19 -22 34 -20 61 9 13 14 34 25 47 25 19 0 23
-5 23 -30 0 -32 -27 -54 -54 -44 -22 8 -20 -13 4 -61 11 -22 20 -31 20 -22 0
9 9 25 20 34 11 10 20 25 20 34 0 19 23 31 45 23 12 -5 15 2 15 34 0 24 6 44
14 49 7 4 13 19 12 33 -2 35 28 33 32 -2 2 -16 -1 -28 -7 -28 -6 0 -11 -16
-11 -35 0 -23 -6 -37 -19 -44 -13 -7 -20 -26 -24 -63 -5 -36 -17 -67 -37 -96
-16 -23 -30 -53 -30 -67 0 -13 -5 -35 -11 -49 -7 -14 -8 -33 -5 -43 6 -15 9
-14 20 12 7 17 20 36 29 44 10 7 17 27 17 43 0 17 9 43 21 59 12 17 24 42 28
56 4 14 17 30 29 34 19 7 22 5 22 -16 0 -21 -28 -93 -63 -160 -10 -18 -19 -54
-34 -127 -3 -16 -9 -28 -13 -28 -5 0 -23 -21 -41 -47 -25 -38 -33 -60 -34
-102 l-2 -54 23 49 c12 27 23 56 23 65 1 9 10 24 21 34 11 10 20 26 20 35 0 9
15 32 34 51 20 21 37 52 45 81 6 26 22 64 36 84 14 20 25 43 25 51 0 8 6 27
14 41 7 15 23 48 35 75 11 26 27 47 36 47 25 0 17 -44 -15 -80 -28 -32 -38
-68 -23 -83 11 -12 43 25 43 51 0 31 49 131 74 153 11 9 25 34 31 55 15 55 45
59 45 7 1 -180 11 -858 13 -895 2 -44 28 -90 43 -76 11 11 6 926 -6 1106 -17
256 -11 236 -77 266 -32 15 -74 26 -99 26 -23 0 -45 4 -48 9 -3 4 -88 9 -188
10 -101 0 -221 3 -268 5 -47 2 -107 1 -134 -3z m24 -117 c0 -16 -26 -19 -35
-4 -4 6 -4 18 -1 27 5 12 9 13 21 3 8 -7 15 -19 15 -26z m185 -114 c3 -5 1
-10 -4 -10 -6 0 -11 5 -11 10 0 6 2 10 4 10 3 0 8 -4 11 -10z m343 -53 c2 -15
-1 -27 -6 -27 -16 0 -44 38 -37 50 12 20 40 6 43 -23z m202 -17 c0 -36 -20
-70 -41 -70 -14 0 -11 49 7 86 20 42 34 35 34 -16z m-475 19 c4 -6 5 -12 2
-15 -7 -7 -37 7 -37 17 0 13 27 11 35 -2z m102 -94 c3 -9 3 -19 -1 -22 -8 -9
-37 18 -30 28 8 14 24 11 31 -6z m123 -1 c0 -9 -7 -14 -17 -12 -25 5 -28 28
-4 28 12 0 21 -6 21 -16z m-220 -4 c0 -5 -4 -10 -10 -10 -5 0 -10 5 -10 10 0
6 5 10 10 10 6 0 10 -4 10 -10z m-95 -20 c0 -7 -6 -15 -12 -17 -8 -3 -13 4
-13 17 0 13 5 20 13 18 6 -3 12 -11 12 -18z m515 -5 c0 -21 -24 -45 -44 -45
-12 0 -6 59 7 63 26 11 37 6 37 -18z m-440 -61 c5 -11 4 -27 0 -34 -7 -11 -13
-10 -34 4 -22 14 -25 20 -15 37 13 25 39 21 49 -7z m390 -18 c0 -16 -18 -31
-27 -22 -8 8 5 36 17 36 5 0 10 -6 10 -14z m-105 -20 c-2 -13 -16 -43 -31 -67
-24 -35 -30 -39 -32 -23 -3 19 8 45 38 92 19 29 28 28 25 -2z"/>
<path d="M614 6438 c-9 -14 4 -23 37 -24 18 -1 28 3 26 9 -5 15 -56 27 -63 15z"/>
<path d="M2072 6433 c4 -21 33 -25 33 -3 0 8 -8 16 -18 18 -14 3 -18 -1 -15
-15z"/>
<path d="M6496 6408 c3 -13 10 -30 15 -38 7 -13 8 -13 9 0 0 27 -12 60 -22 60
-5 0 -6 -10 -2 -22z"/>
<path d="M727 6374 c-8 -8 1 -24 14 -24 5 0 9 7 9 15 0 15 -12 20 -23 9z"/>
<path d="M7250 6344 c0 -14 4 -23 10 -19 6 3 10 15 10 26 0 10 -4 19 -10 19
-5 0 -10 -12 -10 -26z"/>
<path d="M2060 6330 c0 -5 5 -20 11 -34 10 -20 9 -30 -5 -50 -18 -28 -21 -57
-7 -71 5 -6 11 -21 13 -34 1 -14 8 -26 14 -28 15 -5 16 160 2 200 -10 26 -28
37 -28 17z"/>
<path d="M868 6313 c-8 -29 2 -43 28 -43 29 0 33 26 7 46 -24 18 -30 17 -35
-3z"/>
<path d="M964 6299 c-10 -17 23 -46 37 -32 7 7 9 19 6 27 -7 18 -33 21 -43 5z"/>
<path d="M1080 6286 c0 -9 5 -16 10 -16 6 0 10 4 10 9 0 6 -4 13 -10 16 -5 3
-10 -1 -10 -9z"/>
<path d="M1495 6188 c8 -104 15 -126 27 -83 11 43 -7 175 -24 175 -7 0 -8 -29
-3 -92z"/>
<path d="M1610 6256 c0 -26 15 -43 24 -28 7 12 -4 52 -15 52 -5 0 -9 -11 -9
-24z"/>
<path d="M426 6252 c-8 -13 11 -35 23 -28 16 10 14 36 -3 36 -8 0 -17 -4 -20
-8z"/>
<path d="M8530 6249 c-23 -11 -85 -13 -495 -23 -88 -2 -198 -8 -245 -14 -47
-6 -92 -10 -100 -9 -25 2 -127 -33 -140 -48 -6 -8 -10 -22 -8 -32 3 -14 14
-18 53 -19 79 -2 287 16 323 27 37 12 92 16 312 24 161 6 202 8 383 20 104 7
135 18 106 36 -10 6 -8 9 9 9 24 0 29 12 10 27 -19 13 -179 15 -208 2z"/>
<path d="M365 6207 c-9 -34 0 -46 20 -26 13 13 13 17 1 34 -14 19 -15 19 -21
-8z"/>
<path d="M1143 6214 c-4 -12 0 -22 15 -32 12 -8 22 -20 22 -26 0 -6 16 -16 35
-22 27 -8 35 -8 35 1 0 17 -33 45 -53 45 -9 0 -17 6 -17 14 0 7 -7 19 -15 26
-12 10 -16 9 -22 -6z"/>
<path d="M475 6190 c3 -5 8 -10 11 -10 2 0 4 5 4 10 0 6 -5 10 -11 10 -5 0 -7
-4 -4 -10z"/>
<path d="M1036 6172 c-7 -12 23 -54 34 -47 5 3 4 16 -2 30 -12 26 -23 31 -32
17z"/>
<path d="M1605 6153 c4 -15 11 -44 15 -63 9 -47 22 -18 18 41 -2 34 -7 45 -22
47 -16 3 -18 0 -11 -25z"/>
<path d="M913 6125 c0 -22 2 -30 4 -17 2 12 2 30 0 40 -3 9 -5 -1 -4 -23z"/>
<path d="M6121 6104 c0 -11 3 -14 6 -6 3 7 2 16 -1 19 -3 4 -6 -2 -5 -13z"/>
<path d="M6116 6052 c-4 -10 1 -54 9 -98 8 -43 15 -93 15 -110 0 -17 7 -49 16
-70 9 -21 22 -91 30 -156 7 -66 16 -124 20 -130 7 -11 16 -84 38 -296 9 -87
19 -139 29 -150 19 -22 33 -157 16 -167 -15 -10 -29 13 -29 47 0 15 -5 30 -11
34 -6 3 -9 15 -6 25 3 11 2 17 -2 14 -5 -2 -6 -38 -3 -80 2 -41 1 -75 -4 -75
-5 0 -9 -27 -9 -60 0 -33 3 -60 7 -60 5 0 8 -15 8 -34 0 -30 2 -33 25 -28 14
2 24 7 23 11 -22 42 -48 120 -48 145 0 13 5 16 23 11 34 -11 40 -20 48 -77 5
-39 2 -61 -9 -83 -8 -16 -19 -38 -24 -48 -11 -22 14 -67 38 -67 12 0 13 4 4
21 -13 24 -8 34 15 26 8 -4 15 -15 15 -26 0 -11 5 -23 10 -26 6 -4 8 -15 5
-25 -3 -10 -1 -21 5 -25 5 -3 10 -18 10 -33 0 -28 24 -72 39 -72 12 0 23 67
16 90 -4 11 -13 20 -21 20 -9 0 -14 11 -14 34 0 19 -5 47 -10 61 -6 15 -11 70
-12 124 0 53 -4 103 -9 112 -4 9 -13 61 -18 116 -6 55 -17 126 -26 159 -8 32
-15 77 -15 100 0 24 -5 55 -11 71 -13 34 -28 112 -35 172 -2 24 -9 71 -15 105
-6 33 -12 81 -15 106 -3 25 -13 77 -24 115 -10 39 -24 97 -31 130 -23 121 -34
159 -46 162 -6 2 -14 -4 -17 -15z"/>
<path d="M1505 6041 c-8 -14 13 -61 27 -61 13 0 9 34 -5 55 -11 13 -16 15 -22
6z"/>
<path d="M2084 5956 c-8 -22 3 -49 19 -43 6 2 12 14 12 27 0 27 -22 39 -31 16z"/>
<path d="M1628 5931 c-3 -18 2 -56 9 -84 8 -29 16 -90 17 -137 2 -47 8 -116
15 -155 7 -38 13 -118 15 -177 4 -107 9 -133 27 -123 13 9 11 169 -2 182 -7 7
-11 50 -10 115 1 86 -2 108 -17 131 -16 23 -18 36 -10 80 10 61 2 119 -22 166
l-17 34 -5 -32z"/>
<path d="M6415 5909 c-4 -6 -2 -29 4 -52 33 -126 55 -273 66 -422 1 -28 10
-74 18 -103 9 -28 19 -114 23 -189 4 -99 11 -150 24 -180 11 -24 23 -93 30
-160 6 -65 18 -140 26 -167 8 -27 14 -67 14 -88 0 -22 7 -53 16 -70 11 -20 14
-45 11 -70 -3 -24 0 -50 9 -66 8 -15 14 -37 14 -49 0 -25 16 -98 33 -153 10
-35 28 -173 28 -220 0 -14 5 -43 11 -65 5 -22 12 -58 15 -80 5 -43 20 -68 35
-59 12 8 2 105 -19 192 -10 41 -13 82 -9 120 4 35 1 97 -10 162 -9 58 -19 132
-23 165 -5 33 -16 87 -26 120 -10 34 -18 99 -20 150 -1 55 -7 100 -15 115 -10
17 -15 67 -17 160 -1 74 -2 143 -3 153 0 9 -9 25 -20 34 -15 13 -20 30 -20 65
0 26 -4 50 -10 53 -5 3 -10 30 -10 60 0 32 -8 73 -21 102 -14 31 -19 61 -16
85 3 22 -1 48 -10 65 -10 18 -15 51 -14 91 2 49 -1 62 -13 62 -36 0 -42 93 -9
131 7 9 11 23 7 32 -9 23 -24 11 -24 -19 0 -28 -16 -33 -23 -6 -3 9 -10 38
-17 65 -12 47 -23 57 -35 36z"/>
<path d="M2094 5877 c-9 -25 0 -51 19 -55 12 -3 17 3 17 21 0 31 -27 57 -36
34z"/>
<path d="M1520 5858 c0 -13 5 -30 10 -38 7 -11 10 -7 10 17 0 17 -4 35 -10 38
-6 3 -10 -4 -10 -17z"/>
<path d="M5900 5840 c0 -19 3 -21 12 -12 9 9 9 15 0 24 -9 9 -12 7 -12 -12z"/>
<path d="M8345 5818 c-27 -4 -81 -8 -120 -8 -106 1 -241 -14 -259 -29 -23 -19
-20 -40 7 -45 12 -3 85 -7 162 -10 128 -5 211 -18 304 -47 19 -6 70 -13 114
-15 65 -3 83 -7 91 -21 6 -10 13 -91 17 -180 4 -89 12 -170 17 -180 10 -16 12
-15 22 12 16 40 7 394 -11 450 -16 51 -29 69 -42 56 -5 -5 -21 -6 -40 0 -17 5
-40 6 -50 3 -10 -3 -31 -1 -45 4 -41 16 -112 20 -167 10z m299 -64 c9 -23 7
-62 -3 -68 -23 -15 -201 41 -201 63 0 18 17 21 106 21 75 0 93 -3 98 -16z"/>
<path d="M7535 5800 c-3 -5 -1 -10 4 -10 6 0 11 5 11 10 0 6 -2 10 -4 10 -3 0
-8 -4 -11 -10z"/>
<path d="M1538 5794 c-4 -3 -2 -20 3 -37 5 -18 7 -56 3 -85 -7 -58 14 -279 27
-287 4 -3 13 12 20 34 10 34 9 47 -5 85 -10 26 -16 68 -15 103 2 58 -13 178
-22 188 -3 3 -8 2 -11 -1z"/>
<path d="M7485 5720 c-7 -12 2 -30 16 -30 12 0 12 27 0 35 -5 3 -12 1 -16 -5z"/>
<path d="M130 5673 c0 -28 3 -34 10 -23 13 20 13 60 0 60 -5 0 -10 -17 -10
-37z"/>
<path d="M7944 5668 c-3 -12 -3 -78 0 -147 4 -69 7 -165 8 -214 1 -52 6 -94
14 -104 11 -16 14 -16 46 -1 25 12 39 13 53 6 13 -8 24 -7 37 1 11 7 33 9 52
5 19 -3 47 -7 63 -9 15 -2 40 -7 56 -11 21 -5 27 -3 27 10 0 22 27 20 95 -6
l57 -22 18 23 c15 20 20 22 39 11 29 -15 91 -5 91 16 0 8 -10 19 -22 24 -41
16 -127 30 -156 24 -16 -3 -45 1 -66 10 -27 11 -43 13 -56 6 -25 -13 -141 -13
-196 1 -41 11 -47 10 -68 -10 -15 -14 -26 -19 -30 -12 -4 6 -9 91 -11 190 -2
99 -7 191 -11 205 -8 32 -30 34 -40 4z"/>
<path d="M5967 5673 c-4 -3 -7 -17 -7 -30 0 -33 24 -24 28 10 3 26 -7 35 -21
20z"/>
<path d="M9811 5639 c-12 -22 -32 -52 -46 -67 -14 -15 -25 -37 -25 -49 0 -12
-9 -39 -19 -60 -29 -55 -38 -97 -20 -91 20 7 89 136 89 168 0 32 32 76 47 67
7 -4 9 -24 6 -47 -7 -48 10 -53 32 -10 20 38 19 52 -5 73 -11 9 -20 23 -20 31
0 31 -19 24 -39 -15z"/>
<path d="M7507 5632 c-30 -31 -36 -72 -12 -72 9 0 18 8 21 18 3 9 12 29 20 44
20 37 2 43 -29 10z"/>
<path d="M291 5573 c-7 -14 -7 -32 0 -59 17 -62 29 -64 29 -3 0 65 -12 92 -29
62z"/>
<path d="M8948 5535 c-4 -11 -10 -157 -13 -325 -6 -257 -5 -303 6 -292 11 10
15 75 17 301 2 159 2 299 0 312 -3 22 -4 23 -10 4z"/>
<path d="M9817 5484 c-11 -11 -8 -64 3 -64 6 0 13 7 17 16 7 18 -9 58 -20 48z"/>
<path d="M7500 5415 c0 -19 2 -35 5 -35 10 0 24 40 19 54 -11 28 -24 17 -24
-19z"/>
<path d="M9883 5419 c-7 -7 -13 -19 -13 -25 0 -7 -11 -34 -25 -60 -14 -26 -25
-60 -25 -76 0 -22 -7 -33 -30 -46 -23 -13 -30 -24 -30 -47 0 -16 -7 -39 -15
-49 -8 -11 -15 -26 -15 -35 0 -8 -6 -22 -14 -30 -17 -19 -25 -94 -11 -100 6
-2 17 16 26 41 8 24 24 53 34 65 17 20 39 71 52 118 3 11 13 38 23 60 50 109
61 144 58 169 -2 22 -5 25 -15 15z"/>
<path d="M7291 5384 c0 -11 3 -14 6 -6 3 7 2 16 -1 19 -3 4 -6 -2 -5 -13z"/>
<path d="M1570 5293 c0 -34 5 -65 10 -68 11 -7 13 2 10 60 -3 70 -19 76 -20 8z"/>
<path d="M7476 5334 c-5 -14 9 -54 19 -54 3 0 5 16 5 35 0 36 -13 47 -24 19z"/>
<path d="M9663 5343 c-18 -7 -16 -23 2 -23 8 0 15 7 15 15 0 8 -1 15 -2 14 -2
0 -9 -3 -15 -6z"/>
<path d="M9765 5339 c-4 -6 -5 -13 -2 -16 7 -7 27 6 27 18 0 12 -17 12 -25 -2z"/>
<path d="M7291 5233 c0 -38 4 -90 8 -118 6 -45 7 -40 14 58 4 59 5 112 2 117
-16 26 -25 4 -24 -57z"/>
<path d="M1706 5163 c9 -76 14 -80 14 -10 0 31 -5 59 -10 62 -7 4 -8 -13 -4
-52z"/>
<path d="M1580 5165 c0 -47 19 -86 21 -45 3 39 -1 64 -11 74 -7 7 -10 -4 -10
-29z"/>
<path d="M9871 5135 c-17 -36 -31 -69 -31 -73 0 -5 -9 -17 -20 -27 -11 -10
-22 -27 -26 -39 -3 -11 -12 -28 -19 -36 -14 -16 -18 -38 -16 -78 1 -32 22 -23
34 14 5 16 18 39 29 50 11 12 21 34 22 48 2 15 13 37 25 50 11 12 21 32 21 43
0 11 7 37 15 56 17 42 19 57 6 57 -5 0 -23 -29 -40 -65z"/>
<path d="M7485 5148 c-4 -9 -5 -27 -3 -40 l3 -23 13 23 c9 15 10 28 3 40 -9
16 -10 16 -16 0z"/>
<path d="M1590 5074 c0 -38 12 -84 21 -78 14 8 10 58 -6 80 -14 19 -14 19 -15
-2z"/>
<path d="M8499 5016 c-4 -4 -91 -10 -374 -26 -77 -5 -156 -11 -175 -14 -142
-22 -192 -27 -242 -22 -33 3 -60 1 -63 -4 -3 -6 -19 -10 -35 -10 -36 0 -56
-30 -40 -60 13 -24 28 -25 59 -4 19 14 53 17 180 19 101 1 164 6 179 14 13 7
55 11 105 10 115 -2 194 6 249 25 28 10 58 14 74 10 19 -5 31 -2 38 8 10 14
78 29 140 32 16 0 31 6 33 12 3 8 -17 12 -60 13 -35 0 -66 -1 -68 -3z"/>
<path d="M10086 4991 c-12 -13 -16 -32 -14 -58 5 -58 22 -46 28 20 3 31 5 57
4 57 0 0 -9 -9 -18 -19z"/>
<path d="M6182 4981 c4 -13 18 -16 19 -4 0 4 -5 9 -11 12 -7 2 -11 -2 -8 -8z"/>
<path d="M9663 4909 c-16 -16 -17 -69 -3 -69 15 0 22 23 18 55 -2 21 -5 24
-15 14z"/>
<path d="M10077 4873 c-11 -10 -8 -43 3 -43 6 0 10 11 10 25 0 26 -2 29 -13
18z"/>
<path d="M9738 4824 c-5 -4 -8 -19 -8 -33 1 -23 2 -24 11 -8 11 19 9 53 -3 41z"/>
<path d="M1478 4522 c4 -207 6 -230 25 -265 14 -25 23 -33 28 -25 10 20 -7
218 -25 278 -9 31 -16 90 -16 141 0 48 -4 90 -8 93 -5 3 -7 -97 -4 -222z"/>
<path d="M9134 4685 c-10 -41 4 -146 22 -166 12 -14 15 -28 10 -55 -6 -27 -4
-35 6 -32 21 7 32 153 16 218 -15 63 -43 80 -54 35z"/>
<path d="M7590 4651 c0 -6 5 -13 10 -16 6 -3 10 1 10 9 0 9 -4 16 -10 16 -5 0
-10 -4 -10 -9z"/>
<path d="M7499 4548 c-11 -24 -22 -630 -14 -796 3 -80 14 -109 17 -46 2 41 5
73 8 89 1 6 1 61 0 123 -1 82 1 112 10 112 9 0 10 15 4 58 -4 31 -7 148 -7
260 1 118 -2 202 -8 202 -5 0 -10 -1 -10 -2z"/>
<path d="M6290 4466 c0 -26 4 -36 16 -36 11 0 14 8 12 32 -4 46 -28 49 -28 4z"/>
<path d="M1651 4444 c0 -11 3 -14 6 -6 3 7 2 16 -1 19 -3 4 -6 -2 -5 -13z"/>
<path d="M320 4399 c0 -11 5 -17 10 -14 6 3 10 13 10 21 0 8 -4 14 -10 14 -5
0 -10 -9 -10 -21z"/>
<path d="M6255 4410 c-3 -5 -1 -10 4 -10 6 0 11 5 11 10 0 6 -2 10 -4 10 -3 0
-8 -4 -11 -10z"/>
<path d="M6310 4358 c-7 -23 -9 -58 -5 -78 9 -48 7 -80 -6 -96 -9 -11 -16 -10
-36 6 -29 23 -62 26 -64 8 -1 -7 -2 -41 -3 -75 0 -34 -4 -65 -9 -69 -4 -4 -46
-9 -92 -10 -96 -4 -117 -10 -91 -30 29 -21 8 -34 -54 -34 -33 0 -83 -8 -112
-19 -61 -22 -184 -44 -198 -36 -5 3 -29 1 -52 -6 -24 -6 -59 -11 -77 -11 -23
1 -41 -5 -53 -18 -10 -11 -29 -20 -41 -20 -12 0 -42 -7 -66 -16 -40 -14 -45
-14 -53 0 -11 19 -42 21 -56 3 -12 -14 -125 -17 -138 -4 -4 4 -14 7 -21 7 -11
0 -13 -8 -8 -31 6 -28 5 -30 -17 -27 -15 2 -23 10 -23 23 0 17 -8 20 -47 23
-39 3 -49 0 -58 -17 -6 -12 -19 -21 -29 -21 -10 0 -24 -7 -31 -15 -16 -19 -33
-9 -25 15 9 27 -13 30 -170 24 -190 -7 -242 -11 -295 -23 -25 -6 -80 -10 -123
-11 -43 0 -87 -5 -99 -11 -11 -6 -57 -12 -102 -14 -91 -3 -136 -16 -136 -41 0
-12 5 -15 23 -9 12 4 62 11 112 16 73 7 92 5 106 -6 24 -23 59 -18 81 11 13
16 28 24 42 22 33 -5 31 -33 -4 -48 -23 -9 -30 -18 -28 -34 3 -19 8 -21 62
-18 32 2 69 8 83 13 25 9 203 28 331 34 41 2 107 9 147 15 53 8 80 8 94 1 24
-13 66 -14 89 -2 9 5 51 12 92 16 269 23 492 56 539 81 35 17 197 43 311 50
94 5 219 20 265 33 22 6 57 13 78 16 39 6 48 24 21 46 -12 10 -20 10 -35 0
-26 -15 -61 -5 -57 17 2 13 19 19 67 24 78 9 92 19 65 50 -66 77 -81 128 -54
179 9 16 8 26 -5 46 -12 18 -16 38 -12 64 7 54 -10 59 -23 7z m-1718 -573 c-4
-15 -48 -25 -135 -30 -76 -4 -98 8 -35 18 18 3 51 10 73 15 49 12 101 10 97
-3z m123 5 c4 -6 -12 -10 -42 -9 -36 0 -43 3 -28 9 28 12 63 12 70 0z"/>
<path d="M1650 4336 c0 -14 5 -28 10 -31 6 -3 10 5 10 19 0 14 -4 28 -10 31
-6 3 -10 -5 -10 -19z"/>
<path d="M7252 4279 c-5 -13 -10 -85 -11 -159 0 -74 -6 -184 -11 -245 -6 -60
-11 -292 -11 -515 -1 -223 -1 -425 -1 -450 0 -25 1 -89 3 -142 2 -70 -1 -101
-11 -113 -16 -19 -74 -45 -102 -45 -10 0 -44 -11 -76 -24 -31 -13 -78 -27
-104 -30 -25 -4 -51 -13 -57 -20 -6 -8 -33 -19 -59 -27 -26 -7 -63 -23 -82
-35 -19 -12 -52 -25 -74 -29 -21 -3 -64 -19 -95 -35 -31 -16 -68 -31 -82 -34
-30 -7 -48 -51 -29 -70 8 -8 17 -4 32 17 23 31 34 33 60 11 14 -14 20 -14 33
-4 8 7 15 18 15 24 0 6 19 12 42 13 52 3 105 20 140 44 19 14 44 19 90 19 38
0 72 6 83 14 11 7 39 17 63 21 25 4 48 15 56 27 8 11 26 22 41 23 14 2 37 10
50 19 32 21 55 20 71 -1 13 -17 17 -15 51 25 30 33 45 42 70 42 19 0 43 10 61
25 17 14 40 25 52 25 15 0 20 5 18 18 -5 26 -54 27 -130 0 -83 -28 -87 -24
-83 71 3 64 7 204 22 776 3 149 5 306 4 350 -2 44 -5 156 -7 249 -4 166 -14
216 -32 165z"/>
<path d="M6142 4258 c6 -16 36 -34 44 -26 3 4 4 14 1 23 -7 17 -51 21 -45 3z"/>
<path d="M9121 4251 c-12 -21 -5 -32 15 -24 16 6 19 43 4 43 -5 0 -14 -8 -19
-19z"/>
<path d="M7570 4234 c0 -8 5 -12 10 -9 6 4 8 11 5 16 -9 14 -15 11 -15 -7z"/>
<path d="M8992 4195 c0 -16 2 -22 5 -12 2 9 2 23 0 30 -3 6 -5 -1 -5 -18z"/>
<path d="M6064 4145 c-8 -20 -12 -39 -10 -44 3 -4 25 -8 50 -8 50 -1 68 19 36
39 -11 7 -20 18 -20 24 0 10 -21 24 -36 24 -3 0 -12 -16 -20 -35z"/>
<path d="M8986 4090 c-11 -76 -16 -255 -6 -270 14 -22 21 65 18 200 -3 112 -4
119 -12 70z"/>
<path d="M9100 4050 c0 -11 5 -20 10 -20 6 0 10 9 10 20 0 11 -4 20 -10 20 -5
0 -10 -9 -10 -20z"/>
<path d="M9336 4043 c-11 -11 -6 -23 9 -23 8 0 15 4 15 9 0 13 -16 22 -24 14z"/>
<path d="M8886 3975 c-3 -9 -6 -28 -6 -42 0 -26 0 -26 20 -8 22 20 24 56 4 62
-6 2 -14 -3 -18 -12z"/>
<path d="M9370 3955 c0 -16 43 -65 56 -65 20 0 17 14 -8 37 -28 25 -48 36 -48
28z"/>
<path d="M390 3930 c-12 -8 -12 -14 3 -45 18 -38 37 -39 37 -1 0 32 -22 58
-40 46z"/>
<path d="M9632 3838 c-19 -19 -15 -60 4 -56 28 5 41 35 23 53 -12 12 -17 13
-27 3z"/>
<path d="M10042 3823 c-15 -26 -16 -53 -2 -53 14 0 22 24 18 52 l-3 23 -13
-22z"/>
<path d="M9325 3820 c-3 -5 -1 -10 4 -10 6 0 11 5 11 10 0 6 -2 10 -4 10 -3 0
-8 -4 -11 -10z"/>
<path d="M8870 3796 c0 -9 5 -16 10 -16 6 0 10 4 10 9 0 6 -4 13 -10 16 -5 3
-10 -1 -10 -9z"/>
<path d="M8972 3773 c-8 -17 -12 -40 -9 -50 3 -14 6 -12 16 11 6 16 11 39 9
50 -3 18 -5 16 -16 -11z"/>
<path d="M9165 3788 c-4 -9 -2 -24 3 -34 8 -15 10 -14 14 4 7 27 -8 53 -17 30z"/>
<path d="M9254 3765 c-4 -8 -3 -23 1 -32 4 -10 9 -43 11 -73 2 -30 6 -74 9
-96 4 -28 0 -53 -11 -77 -16 -34 -16 -37 0 -61 25 -39 38 -32 35 19 -2 25 2
50 9 57 7 7 12 22 12 35 0 12 9 27 19 33 19 10 19 11 -5 35 -27 27 -31 45 -9
45 8 0 23 -17 33 -37 44 -88 54 -102 75 -116 12 -8 31 -31 42 -51 17 -32 18
-37 4 -51 -13 -13 -17 -13 -37 1 -12 8 -22 21 -22 28 0 21 -38 49 -57 42 -15
-6 -13 -11 15 -39 71 -70 108 -156 62 -144 -25 6 -27 -24 -6 -65 19 -35 5 -36
-49 -3 -50 31 -59 31 -44 3 12 -23 21 -34 83 -101 32 -34 50 -87 29 -87 -12 0
-148 132 -168 163 -26 40 -45 35 -45 -13 0 -33 7 -47 43 -83 49 -51 107 -117
107 -122 0 -15 -51 17 -91 56 -28 27 -55 49 -60 49 -11 0 -5 -29 17 -74 17
-35 14 -39 -19 -30 -34 8 -38 22 -33 134 2 52 0 102 -5 112 -5 9 -11 66 -13
127 -5 111 -9 131 -26 131 -17 0 -22 -60 -7 -83 11 -18 12 -36 4 -95 -8 -57
-7 -78 3 -98 11 -19 11 -34 3 -67 -7 -26 -8 -62 -3 -97 5 -30 12 -79 16 -108
4 -31 13 -56 21 -59 11 -4 11 -7 -1 -17 -22 -16 -32 -66 -14 -66 29 0 76 22
82 37 5 12 9 13 21 3 8 -7 15 -18 15 -24 0 -6 9 -17 20 -24 29 -18 25 -42 -6
-42 -14 0 -35 -5 -47 -12 -12 -6 -38 -10 -59 -10 -27 1 -41 -4 -52 -19 -15
-22 -22 -27 -93 -66 -61 -33 -156 -117 -189 -165 -16 -24 -37 -49 -46 -56 -9
-7 -22 -36 -28 -65 -12 -61 -4 -92 35 -139 14 -16 25 -40 25 -52 0 -27 18 -46
44 -46 11 0 31 -11 45 -24 15 -14 51 -37 81 -52 30 -15 62 -32 70 -39 23 -18
161 -73 227 -89 32 -9 90 -25 128 -36 72 -22 209 -43 280 -43 77 -1 212 22
294 50 64 21 90 36 117 65 36 40 40 53 24 78 -8 13 -12 12 -25 -8 -19 -27 -28
-23 -61 29 -26 42 -44 48 -65 23 -7 -8 -21 -13 -31 -11 -21 6 -24 -13 -6 -31
19 -19 -9 -34 -51 -28 -26 4 -34 1 -38 -14 -7 -25 -27 -32 -48 -16 -13 10 -15
17 -8 32 11 21 7 44 -8 44 -4 0 -16 -14 -24 -31 l-16 -31 -24 26 c-29 31 -34
32 -87 6 -49 -24 -108 -26 -147 -5 -16 8 -49 16 -73 19 -25 2 -55 9 -66 15
-12 6 -32 9 -44 6 -16 -4 -34 3 -57 20 -19 14 -38 25 -42 25 -4 0 -20 5 -36
11 -15 7 -59 12 -96 11 -50 0 -70 3 -74 14 -3 8 -12 14 -20 14 -16 0 -93 75
-93 91 0 18 49 9 60 -11 13 -24 47 -43 54 -31 3 5 -4 20 -15 35 -24 30 -28 27
81 55 88 22 160 58 213 106 21 19 44 35 52 35 15 0 85 98 85 120 0 8 -8 10
-26 6 -26 -7 -26 -6 -20 25 3 18 13 40 20 48 8 9 18 28 21 44 8 32 7 32 63 10
41 -15 45 -15 74 2 40 23 107 16 185 -21 87 -41 104 -58 127 -126 16 -48 26
-64 44 -68 23 -5 92 -83 92 -104 0 -6 22 -36 49 -65 50 -55 70 -107 57 -149
-6 -19 18 -50 27 -35 14 23 17 99 7 148 -16 77 -52 155 -115 250 -80 120 -142
174 -262 229 -18 8 -33 19 -33 25 0 5 -24 9 -52 9 -77 -1 -158 45 -158 88 0
37 34 30 60 -11 23 -38 48 -55 68 -48 18 7 15 18 -13 63 -14 22 -25 42 -25 45
0 12 26 3 56 -20 18 -14 42 -25 53 -25 11 0 23 -4 26 -10 11 -18 35 -11 35 10
0 15 -7 20 -25 20 -18 0 -29 8 -38 27 -6 16 -23 38 -37 50 -31 26 -22 38 15
21 23 -10 29 -10 33 0 7 22 48 13 77 -18 16 -16 37 -30 47 -30 29 0 4 39 -50
80 l-47 35 33 3 c26 3 32 8 32 27 0 27 -27 58 -45 52 -16 -7 -26 2 -49 37 -18
28 -18 29 8 53 35 32 33 52 -9 93 -40 38 -43 57 -16 91 11 15 21 50 25 93 6
62 5 68 -10 62 -19 -7 -54 19 -54 40 0 7 -9 18 -21 24 -16 9 -19 18 -14 39 7
35 -27 80 -74 98 -39 14 -45 5 -28 -45 11 -32 11 -45 0 -77 -7 -21 -20 -46
-28 -55 -8 -9 -15 -25 -15 -36 0 -21 -16 -51 -23 -44 -2 3 -11 18 -20 35 -10
20 -23 30 -38 30 -18 0 -25 7 -27 25 -2 13 -15 37 -28 53 -13 16 -24 32 -24
35 0 4 -13 16 -30 27 -16 11 -35 32 -41 47 -12 30 -36 37 -45 13z m391 -124
c0 -23 -23 -24 -35 -1 -10 19 -9 21 12 18 13 -2 23 -9 23 -17z m4 -64 c27 -30
19 -54 -23 -65 -30 -8 -31 -7 -34 26 -6 65 17 81 57 39z m-19 -111 c0 -3 -4
-8 -10 -11 -5 -3 -10 -1 -10 4 0 6 5 11 10 11 6 0 10 -2 10 -4z m40 -142 c0
-17 -5 -24 -20 -24 -22 0 -25 12 -9 41 13 25 29 16 29 -17z m-156 -151 c-8
-46 -9 -47 -29 -40 -21 8 -19 54 3 66 29 17 33 13 26 -26z m74 -11 c4 -41 -13
-42 -27 -1 -14 41 -14 41 7 37 11 -2 18 -14 20 -36z m17 -82 c3 -5 1 -10 -4
-10 -6 0 -11 5 -11 10 0 6 2 10 4 10 3 0 8 -4 11 -10z m55 -50 c0 -5 -2 -10
-4 -10 -3 0 -8 5 -11 10 -3 6 -1 10 4 10 6 0 11 -4 11 -10z m-130 -59 c0 -12
-6 -9 -20 9 -26 33 -26 48 0 25 11 -10 20 -25 20 -34z m90 -17 c0 -8 -4 -14
-10 -14 -5 0 -10 9 -10 21 0 11 5 17 10 14 6 -3 10 -13 10 -21z m-235 -126
c24 -21 34 -58 16 -58 -9 0 -61 64 -61 74 0 13 21 5 45 -16z m29 -154 c14 -36
-74 -157 -153 -210 -20 -13 -52 -35 -71 -48 -61 -41 -160 -62 -267 -58 -59 3
-56 22 11 97 l54 60 24 -26 c23 -25 29 -26 71 -18 56 10 95 29 123 61 26 28
54 81 54 102 0 14 54 38 92 41 10 1 21 5 25 8 11 12 31 7 37 -9z m-197 -50 c4
-10 -7 -29 -30 -52 -32 -32 -42 -36 -88 -37 -31 0 -54 5 -56 12 -5 14 46 63
67 63 8 1 26 7 40 15 33 19 59 19 67 -1z"/>
<path d="M2690 3736 c0 -9 5 -16 10 -16 6 0 10 4 10 9 0 6 -4 13 -10 16 -5 3
-10 -1 -10 -9z"/>
<path d="M3725 3713 c-27 -2 -54 -8 -59 -13 -12 -12 41 -33 57 -23 7 4 30 10
51 13 43 5 64 31 24 28 -12 -1 -45 -3 -73 -5z"/>
<path d="M8871 3670 c-13 -62 -14 -90 -2 -90 10 0 27 127 18 136 -3 3 -10 -18
-16 -46z"/>
<path d="M10023 3708 c-15 -19 -25 -75 -23 -134 0 -28 -5 -64 -11 -80 -13 -31
-41 -542 -30 -559 3 -5 6 -32 6 -60 0 -39 4 -50 18 -53 11 -2 17 3 17 15 0 10
7 32 16 48 11 20 17 62 20 130 1 55 6 138 9 185 3 47 6 179 7 293 1 202 -5
245 -29 215z"/>
<path d="M9167 3693 c-7 -13 -2 -132 6 -139 4 -4 7 6 7 23 0 17 3 51 6 77 5
30 3 46 -4 46 -6 0 -13 -3 -15 -7z"/>
<path d="M8958 3674 c-6 -10 -12 -269 -13 -531 0 -121 4 -186 11 -193 18 -18
24 62 25 321 0 129 2 267 3 306 2 46 -1 79 -9 89 -6 10 -14 13 -17 8z"/>
<path d="M9515 3649 c-4 -6 -5 -13 -2 -16 7 -7 27 6 27 18 0 12 -17 12 -25 -2z"/>
<path d="M8243 3613 c-31 -6 -60 -45 -79 -108 -16 -50 -16 -56 0 -98 9 -24 29
-56 46 -72 27 -26 32 -27 84 -21 31 4 56 12 56 17 0 5 13 9 29 9 28 0 29 2 35
63 10 92 -13 160 -64 192 -38 24 -59 27 -107 18z m112 -137 c11 -70 -22 -108
-76 -87 -66 25 -84 105 -34 148 l26 23 39 -20 c34 -17 40 -25 45 -64z"/>
<path d="M8516 3569 c-27 -29 -28 -32 -17 -70 12 -41 48 -73 72 -64 8 3 24 22
36 43 16 29 20 48 16 80 -5 41 -7 42 -42 42 -27 0 -43 -7 -65 -31z"/>
<path d="M6535 3529 c-22 -4 -62 -8 -90 -8 -27 -1 -84 -8 -125 -17 -41 -9 -87
-17 -101 -19 -15 -2 -52 -11 -83 -20 -45 -13 -80 -15 -176 -10 -69 4 -134 2
-153 -3 -74 -22 -294 -64 -537 -101 -36 -5 -90 -14 -120 -20 -30 -6 -89 -15
-130 -21 -41 -5 -102 -15 -135 -21 -33 -6 -73 -11 -90 -10 -107 4 -100 5 -320
-33 -49 -8 -131 -15 -181 -16 -50 0 -104 -4 -120 -10 -28 -9 -195 -30 -241
-30 -12 0 -34 -5 -49 -10 -18 -7 -30 -7 -40 0 -9 8 -19 8 -36 -1 -13 -7 -35
-12 -50 -10 -14 1 -29 -2 -33 -8 -4 -7 4 -11 19 -11 40 0 47 -26 38 -147 -9
-125 -8 -237 3 -306 l8 -49 17 54 c10 29 21 68 25 86 5 23 12 32 23 30 13 -2
18 -16 20 -53 3 -65 10 -95 22 -95 8 0 6 226 -4 445 -1 29 1 30 39 30 32 0 42
-5 50 -22 8 -18 19 -23 50 -24 22 -1 60 -3 85 -5 86 -6 111 -4 135 12 26 17
52 13 94 -13 l24 -15 -34 -15 -34 -14 24 -20 c30 -24 53 -24 69 1 15 25 40 26
66 1 18 -17 55 -26 92 -22 6 1 14 19 18 41 3 23 12 43 20 46 7 3 35 -3 62 -12
47 -16 49 -16 62 5 18 27 35 27 56 -1 12 -16 18 -19 22 -10 3 6 14 12 25 12
11 0 22 7 26 16 3 8 16 20 30 25 13 5 28 20 33 34 10 28 20 31 38 13 9 -9 21
-7 54 8 27 12 64 19 103 19 55 -1 70 -6 175 -64 163 -90 241 -128 291 -141 24
-7 65 -24 90 -40 52 -31 201 -91 272 -108 27 -7 74 -29 105 -49 55 -35 200
-93 312 -126 32 -9 60 -25 68 -37 10 -16 23 -20 62 -20 28 0 50 5 50 10 0 6
-4 10 -10 10 -5 0 -10 14 -10 30 0 33 -11 38 -30 15 -7 -8 -19 -15 -27 -15
-20 0 -28 27 -13 45 10 13 9 19 -5 35 -21 23 -55 27 -55 6 0 -21 -29 -28 -58
-13 -23 11 -27 19 -25 50 2 34 -1 40 -32 58 -31 19 -39 39 -15 39 5 0 20 4 35
10 22 8 24 13 15 30 -7 13 -21 20 -38 20 -39 0 -97 60 -87 89 5 15 15 21 37
21 42 0 31 24 -13 26 -38 1 -103 24 -121 42 -7 7 -19 12 -28 12 -8 0 -33 12
-55 27 -29 20 -53 27 -92 28 -30 2 -56 -2 -59 -6 -9 -14 -24 -10 -24 6 0 9 -6
18 -13 21 -17 6 -16 44 3 70 11 15 33 23 88 30 43 6 79 6 88 1 10 -6 26 -5 41
2 13 6 40 11 60 11 20 0 44 7 54 16 19 17 57 24 155 28 33 1 76 9 95 18 19 9
59 19 89 23 79 8 203 40 208 53 2 7 -8 9 -31 5 -43 -7 -55 9 -27 37 11 11 20
22 20 24 0 6 -73 3 -115 -5z m-758 -253 c-5 -17 -47 -20 -47 -3 0 20 9 26 31
20 11 -3 18 -11 16 -17z m-57 -54 c0 -12 -46 -32 -54 -25 -16 16 -4 33 24 33
17 0 30 -4 30 -8z m212 -89 c23 -21 23 -30 -1 -43 -14 -7 -27 -7 -46 2 l-25
11 22 24 c26 27 26 28 50 6z m-1412 -17 c0 -3 -4 -8 -10 -11 -5 -3 -10 -1 -10
4 0 6 5 11 10 11 6 0 10 -2 10 -4z m1474 -17 c-7 -11 -34 -12 -34 -1 0 14 11
21 26 15 8 -3 11 -9 8 -14z m-159 -19 c-3 -5 -11 -10 -16 -10 -6 0 -7 5 -4 10
3 6 11 10 16 10 6 0 7 -4 4 -10z m218 -74 c15 -2 32 -4 37 -5 19 -2 10 -31
-10 -31 -11 0 -29 -5 -40 -12 -31 -19 -74 1 -78 36 -3 27 -2 28 30 22 18 -4
45 -9 61 -10z m116 -69 c13 -16 5 -27 -20 -27 -24 0 -35 20 -18 31 19 12 25
11 38 -4z m6 -87 c13 -21 -6 -28 -42 -17 -34 11 -35 12 -12 18 36 10 47 10 54
-1z"/>
<path d="M7502 3440 c0 -14 2 -19 5 -12 2 6 2 18 0 25 -3 6 -5 1 -5 -13z"/>
<path d="M9791 3406 c-16 -29 -12 -55 11 -70 22 -13 24 -10 31 47 6 41 4 47
-12 47 -9 0 -23 -11 -30 -24z"/>
<path d="M7506 3388 c-3 -7 -7 -32 -10 -56 -5 -33 -3 -44 9 -48 21 -8 48 15
39 35 -4 9 -6 31 -5 49 1 23 -3 32 -14 32 -9 0 -17 -6 -19 -12z"/>
<path d="M9080 3339 c0 -17 4 -28 10 -24 6 3 10 17 10 31 0 13 -4 24 -10 24
-5 0 -10 -14 -10 -31z"/>
<path d="M9334 3354 c3 -8 6 -18 6 -20 0 -2 5 -4 10 -4 16 0 11 27 -6 34 -12
5 -15 2 -10 -10z"/>
<path d="M6275 3310 c3 -5 8 -10 11 -10 2 0 4 5 4 10 0 6 -5 10 -11 10 -5 0
-7 -4 -4 -10z"/>
<path d="M5862 3268 c-14 -14 -16 -38 -4 -38 14 0 43 36 35 43 -9 10 -17 9
-31 -5z"/>
<path d="M9072 3227 c-13 -15 4 -427 19 -441 6 -6 9 -6 10 0 6 72 11 202 11
295 0 146 -10 183 -40 146z"/>
<path d="M3545 3170 c-10 -17 5 -30 35 -30 33 0 49 18 29 31 -19 12 -56 11
-64 -1z"/>
<path d="M1790 3152 c0 -25 28 -62 48 -62 21 -1 60 -35 85 -73 21 -33 32 -29
23 7 -3 13 -23 35 -43 47 -44 27 -67 49 -83 78 -13 26 -30 27 -30 3z"/>
<path d="M4940 3140 c0 -11 5 -20 10 -20 6 0 10 9 10 20 0 11 -4 20 -10 20 -5
0 -10 -9 -10 -20z"/>
<path d="M3152 3128 c-18 -18 -15 -28 8 -28 13 0 20 7 20 20 0 23 -10 26 -28
8z"/>
<path d="M8610 3104 c-85 -13 -183 -31 -217 -39 -34 -8 -85 -15 -115 -15 -29
0 -77 -9 -106 -20 -29 -11 -71 -20 -93 -20 -23 0 -68 -7 -101 -16 -33 -8 -86
-18 -117 -21 -81 -9 -263 -9 -282 0 -22 11 -31 -13 -15 -44 9 -19 22 -25 66
-31 49 -6 124 -9 200 -7 30 1 80 19 80 28 0 4 26 5 58 3 45 -3 77 2 147 26 70
23 110 30 180 31 66 1 110 8 164 26 40 14 88 25 106 25 18 0 53 8 77 19 24 10
67 22 95 26 57 7 90 26 79 43 -9 15 -18 14 -206 -14z"/>
<path d="M2866 3113 c-13 -14 -5 -33 14 -33 11 0 20 6 20 14 0 15 -24 28 -34
19z"/>
<path d="M3007 3113 c-22 -22 26 -31 82 -16 23 6 23 7 5 14 -24 10 -79 11 -87
2z"/>
<path d="M2711 3081 c-7 -5 -9 -11 -4 -14 13 -8 53 3 53 14 0 11 -31 11 -49 0z"/>
<path d="M4614 3066 c-8 -22 2 -46 21 -46 19 0 20 34 0 50 -12 10 -16 9 -21
-4z"/>
<path d="M4255 3060 c-3 -5 -1 -10 4 -10 6 0 11 5 11 10 0 6 -2 10 -4 10 -3 0
-8 -4 -11 -10z"/>
<path d="M6295 3060 c-3 -6 1 -13 10 -16 19 -8 30 0 20 15 -8 14 -22 14 -30 1z"/>
<path d="M9905 3000 c3 -5 8 -10 11 -10 2 0 4 5 4 10 0 6 -5 10 -11 10 -5 0
-7 -4 -4 -10z"/>
<path d="M4978 2943 c-2 -10 1 -82 8 -161 6 -79 10 -152 7 -163 -4 -14 0 -19
16 -19 12 0 24 7 27 15 5 13 9 13 35 -1 29 -15 98 -82 99 -96 0 -12 62 -68 74
-68 16 0 36 21 36 37 0 14 -84 100 -192 198 -60 54 -67 73 -83 218 -6 56 -18
74 -27 40z"/>
<path d="M9782 2929 c2 -6 8 -10 13 -10 5 0 11 4 13 10 2 6 -4 11 -13 11 -9 0
-15 -5 -13 -11z"/>
<path d="M9845 2890 c3 -5 8 -10 11 -10 2 0 4 5 4 10 0 6 -5 10 -11 10 -5 0
-7 -4 -4 -10z"/>
<path d="M9817 2823 c-3 -5 -2 -15 2 -22 7 -10 10 -10 16 -1 4 6 3 16 -3 22
-5 5 -12 6 -15 1z"/>
<path d="M6330 2795 c0 -8 5 -15 10 -15 6 0 10 7 10 15 0 8 -4 15 -10 15 -5 0
-10 -7 -10 -15z"/>
<path d="M8850 2774 c-102 -27 -185 -46 -235 -54 -27 -5 -88 -16 -135 -25 -47
-9 -110 -20 -140 -25 -30 -6 -73 -14 -95 -19 -22 -6 -53 -13 -70 -16 -109 -22
-140 -30 -225 -57 -92 -29 -95 -29 -132 -12 -21 9 -38 21 -38 25 0 4 -10 11
-22 15 -13 4 -39 18 -59 31 -22 14 -48 23 -67 21 -19 -1 -39 5 -51 17 -12 10
-23 16 -26 13 -11 -11 8 -38 48 -65 51 -34 57 -41 57 -70 0 -16 6 -23 20 -23
11 0 20 -6 20 -14 0 -16 27 -29 42 -20 6 4 23 -6 37 -22 29 -31 43 -41 111
-78 25 -13 61 -40 79 -60 19 -20 43 -36 53 -36 9 0 25 -8 35 -18 10 -10 30
-23 46 -30 15 -6 27 -18 27 -27 0 -8 17 -23 38 -33 40 -20 232 -170 232 -182
0 -15 -36 -38 -60 -38 -43 0 -97 -10 -116 -21 -11 -5 -34 -17 -52 -26 -32 -15
-32 -15 -44 12 l-12 28 -4 -32 c-2 -26 -8 -33 -25 -33 -11 0 -34 -12 -49 -27
-27 -25 -29 -26 -41 -9 -11 15 -17 17 -35 7 -13 -7 -26 -10 -31 -7 -5 3 -44
-4 -87 -15 -44 -12 -92 -24 -109 -26 -16 -3 -37 -12 -46 -20 -12 -10 -28 -12
-53 -8 -43 8 -134 -17 -189 -54 -31 -20 -55 -25 -129 -30 -71 -5 -93 -10 -102
-23 -18 -30 6 -43 43 -23 26 13 39 14 66 5 27 -9 38 -8 57 4 13 8 41 18 63 22
22 4 48 13 59 20 10 7 25 10 32 7 8 -3 22 1 31 8 11 10 47 14 117 15 79 0 107
4 128 18 15 10 47 19 70 19 26 1 51 9 63 20 13 12 29 17 45 13 26 -5 153 24
166 37 4 4 16 7 27 7 10 0 30 9 44 20 28 22 58 26 68 10 10 -16 62 -12 69 5 3
8 12 12 21 9 25 -10 62 4 68 26 3 11 10 20 15 20 19 0 122 -93 122 -110 0 -25
-43 -40 -118 -40 -47 0 -75 -5 -93 -18 -25 -16 -95 -21 -154 -10 -12 2 -19 -2
-18 -9 2 -7 -4 -13 -13 -13 -9 0 -24 -10 -33 -22 l-18 -22 -19 22 c-24 29 -34
28 -34 -3 0 -26 -25 -35 -33 -12 -7 18 -42 -5 -42 -29 0 -10 -9 -21 -20 -24
-34 -9 -85 -53 -85 -73 0 -17 5 -18 43 -12 23 4 51 13 62 19 35 22 147 55 240
70 149 26 186 35 280 71 49 19 102 37 118 41 37 9 45 25 19 42 -16 11 -19 20
-15 47 5 31 0 39 -61 99 -37 37 -72 66 -78 66 -7 0 -26 13 -43 29 -16 17 -58
51 -92 78 -34 26 -104 81 -155 121 -51 40 -100 79 -108 85 -9 7 -36 28 -60 48
-25 20 -54 41 -65 47 -11 5 -28 25 -39 42 l-19 32 39 -4 c23 -3 50 1 67 9 15
8 32 11 37 8 5 -3 27 -1 47 4 21 5 61 15 88 22 28 6 68 17 90 24 22 7 83 20
135 29 84 15 121 21 235 43 17 3 35 9 40 13 6 4 48 20 95 36 93 30 160 72 138
85 -17 11 -32 10 -98 -7z"/>
<path d="M4860 2631 c-75 -39 -92 -45 -110 -33 -18 11 -44 7 -65 -10 -38 -31
-90 -58 -113 -58 -15 0 -36 -7 -46 -15 -11 -8 -31 -15 -45 -15 -34 0 -43 -7
-74 -52 -18 -28 -26 -34 -31 -23 -9 24 -23 17 -43 -21 -13 -26 -30 -41 -58
-51 -22 -8 -76 -32 -120 -53 -44 -21 -105 -43 -135 -49 -50 -9 -46 -9 39 -5
52 3 128 14 170 25 41 10 92 19 113 19 26 0 50 8 71 24 33 24 88 37 165 38 37
0 43 3 39 19 -6 21 55 63 88 61 10 -1 24 3 30 7 18 14 46 22 40 11 -3 -6 0
-10 8 -10 10 0 13 8 10 24 -5 25 11 38 80 67 15 6 32 20 38 30 5 10 19 19 29
19 33 0 22 25 -17 40 -21 8 -40 16 -43 17 -3 1 -12 -2 -20 -6z"/>
<path d="M6560 2611 c0 -14 37 -23 61 -16 17 6 19 9 8 16 -19 12 -69 11 -69 0z"/>
<path d="M3653 2583 c-7 -2 -13 -9 -13 -14 0 -14 26 -10 40 6 10 12 10 15 -1
14 -8 0 -20 -3 -26 -6z"/>
<path d="M6710 2545 c0 -8 5 -15 10 -15 6 0 10 7 10 15 0 8 -4 15 -10 15 -5 0
-10 -7 -10 -15z"/>
<path d="M3565 2540 c4 -6 11 -8 16 -5 14 9 11 15 -7 15 -8 0 -12 -5 -9 -10z"/>
<path d="M7380 2535 c-7 -8 -21 -15 -31 -15 -19 0 -35 -17 -25 -27 10 -10 96
28 96 43 0 18 -24 18 -40 -1z"/>
<path d="M3402 2506 c-35 -13 -71 -30 -80 -39 -9 -8 -42 -26 -72 -41 -119 -58
-230 -131 -230 -151 0 -17 68 -85 85 -85 6 0 32 -20 56 -45 24 -25 53 -45 63
-45 11 0 43 -25 73 -55 69 -71 71 -95 2 -60 -28 15 -30 15 -39 -9 -5 -14 -18
-30 -29 -36 -17 -9 -28 -4 -67 25 -26 20 -60 43 -77 52 -17 8 -37 22 -45 29
-17 17 -29 18 -38 2 -5 -7 5 -21 24 -36 54 -42 144 -92 164 -92 11 0 40 -18
65 -40 56 -49 70 -51 65 -6 -3 27 1 37 25 55 22 18 35 21 63 16 19 -4 47 -7
62 -7 15 1 30 -3 33 -8 4 -6 17 -10 29 -10 24 0 81 -39 59 -40 -7 0 -13 -4
-13 -10 0 -5 17 -10 38 -10 47 -1 76 -21 67 -49 -4 -13 -16 -21 -38 -23 -20
-2 -32 -8 -32 -18 0 -19 43 -26 50 -8 4 9 26 14 70 16 36 1 74 6 85 12 10 5
28 10 39 10 12 0 21 5 21 10 0 19 -47 30 -82 19 -59 -17 -87 -12 -94 16 -4 14
-25 39 -49 55 -23 16 -49 40 -59 54 -9 14 -27 28 -40 32 -13 3 -28 16 -34 28
-6 13 -24 34 -42 47 -56 43 -81 69 -75 79 3 6 2 10 -4 10 -6 0 -33 23 -61 50
-28 28 -55 50 -61 50 -17 0 -69 43 -69 57 0 18 39 16 46 -2 10 -26 33 -17 31
12 -2 23 3 29 23 31 49 6 54 11 35 32 -17 19 -17 21 14 49 18 17 42 33 54 37
12 3 30 13 39 21 12 11 28 14 49 9 26 -5 30 -3 25 10 -3 9 -6 18 -6 20 0 11
-62 0 -118 -20z"/>
<path d="M7226 2464 c-8 -21 -7 -26 4 -44 7 -12 12 -12 29 4 16 14 18 23 10
37 -12 23 -35 25 -43 3z"/>
<path d="M7515 2409 c8 -26 19 -36 105 -102 30 -22 63 -51 73 -64 10 -13 27
-23 37 -23 11 0 27 -11 36 -25 9 -14 21 -25 26 -25 6 0 27 -13 47 -29 50 -39
155 -91 186 -91 20 0 25 5 25 24 0 20 -11 29 -65 55 -55 25 -66 35 -71 60 -8
38 -25 53 -72 60 -28 5 -37 12 -42 31 -4 19 -13 26 -38 28 -20 2 -40 14 -56
33 -14 16 -34 29 -45 29 -24 0 -71 20 -71 31 0 4 -11 10 -24 13 -13 3 -32 9
-41 12 -14 6 -16 3 -10 -17z"/>
<path d="M6350 2403 c-39 -7 -46 -21 -15 -29 29 -7 56 3 63 24 4 12 -3 13 -48
5z"/>
<path d="M5300 2395 c0 -3 17 -31 38 -62 42 -64 56 -52 23 22 -14 32 -26 45
-40 45 -12 0 -21 -2 -21 -5z"/>
<path d="M9942 2383 c5 -26 38 -29 38 -4 0 15 -6 21 -21 21 -14 0 -19 -5 -17
-17z"/>
<path d="M6200 2376 c-19 -8 -48 -18 -65 -24 -16 -6 -46 -15 -65 -22 -19 -7
-51 -16 -70 -20 -89 -22 -113 -29 -123 -39 -6 -6 -33 -11 -61 -11 -27 0 -63
-4 -80 -9 -17 -5 -60 -15 -96 -21 -36 -6 -72 -18 -81 -26 -9 -8 -18 -12 -21
-8 -7 7 -106 -25 -114 -37 -3 -5 17 -9 45 -9 27 0 53 5 56 10 3 6 25 10 48 10
23 1 60 8 82 16 65 25 174 52 236 59 20 3 56 16 80 30 24 14 56 25 70 25 14 0
48 11 75 25 27 14 62 25 77 25 32 0 67 16 67 30 0 13 -18 12 -60 -4z"/>
<path d="M460 2291 c0 -32 -5 -72 -11 -90 -7 -20 -8 -36 -1 -44 16 -21 36
-252 23 -276 -15 -28 -26 -27 -50 7 -19 27 -19 30 -3 46 16 15 15 18 -11 39
-25 20 -27 29 -30 97 -1 55 3 84 15 109 10 18 15 38 11 44 -4 6 -6 24 -5 39 2
23 -4 30 -34 43 -20 8 -38 15 -40 15 -8 0 -4 -129 5 -176 5 -27 11 -103 12
-169 3 -176 9 -191 130 -308 128 -124 141 -133 177 -118 15 6 59 13 97 15 89
6 230 24 275 35 19 5 64 10 99 10 35 1 68 4 73 7 28 17 -55 55 -92 42 -14 -5
-39 -7 -57 -3 -41 7 -83 -3 -83 -21 0 -21 -38 -17 -77 7 -33 21 -35 21 -54 3
-19 -18 -21 -18 -30 -1 -12 21 -35 22 -46 3 -12 -22 -161 -22 -183 0 -18 18
-8 78 13 82 10 2 17 -3 17 -12 0 -9 4 -16 8 -16 5 0 19 -9 32 -20 29 -25 61
-26 90 -2 19 15 21 22 11 40 -6 11 -11 30 -11 41 0 26 -17 36 -35 21 -35 -29
-115 73 -115 148 0 21 -5 32 -14 32 -26 0 -35 56 -14 89 9 15 8 22 -5 36 -9 9
-18 24 -18 33 -1 9 -3 33 -4 52 -1 19 -5 45 -9 57 -6 18 -4 22 8 17 11 -4 16
0 16 15 0 12 -4 21 -10 21 -5 0 -16 16 -24 35 -8 19 -22 35 -30 35 -13 0 -16
-12 -16 -59z"/>
<path d="M9375 2340 c-3 -5 -1 -10 4 -10 6 0 11 5 11 10 0 6 -2 10 -4 10 -3 0
-8 -4 -11 -10z"/>
<path d="M9758 2258 c12 -12 24 -19 28 -15 10 10 -16 37 -34 37 -13 0 -12 -4
6 -22z"/>
<path d="M9080 2173 c1 -19 18 -33 34 -27 15 6 15 7 -1 20 -20 15 -33 18 -33
7z"/>
<path d="M9925 2148 c-3 -13 -11 -33 -17 -46 -9 -17 -9 -25 0 -34 8 -8 14 -5
21 14 5 14 20 33 32 42 19 13 20 18 9 31 -18 22 -38 19 -45 -7z"/>
<path d="M5103 2153 c-24 -9 -13 -23 17 -23 20 0 30 5 30 15 0 15 -22 19 -47
8z"/>
<path d="M4964 2140 c-55 -8 -74 -16 -74 -29 0 -17 66 -19 119 -4 50 14 53 17
36 29 -10 8 -21 13 -24 13 -3 -1 -29 -5 -57 -9z"/>
<path d="M4796 2089 c-22 -5 -48 -17 -58 -25 -11 -11 -28 -15 -50 -11 -18 2
-44 -1 -58 -8 -14 -7 -52 -16 -85 -20 -56 -7 -115 -37 -115 -58 0 -11 31 -6
110 17 30 9 67 16 81 16 15 0 33 7 40 16 9 11 23 14 44 11 20 -3 48 2 74 14
24 10 49 19 56 19 6 0 20 9 30 20 18 19 17 20 -6 19 -13 -1 -42 -5 -63 -10z"/>
<path d="M7160 2093 c0 -19 52 -83 68 -83 13 1 11 5 -9 23 -15 12 -29 31 -30
41 -4 19 -29 36 -29 19z"/>
<path d="M9590 2036 c0 -10 9 -16 21 -16 24 0 21 23 -4 28 -10 2 -17 -3 -17
-12z"/>
<path d="M8060 2007 c0 -8 9 -22 20 -32 24 -21 28 -1 6 28 -16 20 -26 22 -26
4z"/>
<path d="M594 1996 c-8 -22 3 -33 18 -18 9 9 9 15 0 24 -9 9 -13 7 -18 -6z"/>
<path d="M695 1980 c-3 -5 -1 -10 4 -10 6 0 11 5 11 10 0 6 -2 10 -4 10 -3 0
-8 -4 -11 -10z"/>
<path d="M7694 1977 c-8 -23 3 -50 19 -44 13 4 11 36 -4 51 -5 6 -11 3 -15 -7z"/>
<path d="M4352 1968 c-17 -17 -15 -28 6 -28 19 0 42 18 42 32 0 12 -35 9 -48
-4z"/>
<path d="M4245 1929 c-4 -6 -4 -13 -1 -16 8 -8 36 5 36 17 0 13 -27 13 -35 -1z"/>
<path d="M7287 1923 c-9 -11 -17 -23 -17 -28 0 -9 107 -2 117 8 11 12 -12 27
-48 33 -26 4 -38 1 -52 -13z"/>
<path d="M7484 1919 c-11 -18 13 -34 31 -19 8 7 15 16 15 21 0 13 -38 11 -46
-2z"/>
<path d="M662 1875 c-1 -35 3 -47 18 -55 35 -19 42 -12 38 35 -3 39 -1 45 16
45 30 0 15 7 -29 13 l-41 7 -2 -45z"/>
<path d="M4144 1909 c-9 -16 1 -21 38 -17 l33 3 -32 12 c-22 8 -35 8 -39 2z"/>
<path d="M7550 1895 c0 -22 24 -29 51 -14 23 12 23 12 4 20 -33 13 -55 10 -55
-6z"/>
<path d="M4027 1894 c-11 -12 3 -24 29 -24 16 0 24 5 22 13 -5 13 -40 22 -51
11z"/>
<path d="M7151 1865 c-24 -19 -52 -35 -61 -35 -10 0 -23 -6 -29 -14 -7 -8 -28
-16 -49 -19 -99 -14 -212 -46 -212 -61 0 -5 94 3 160 14 55 9 65 8 73 -5 11
-21 29 -8 22 16 -8 23 20 37 43 23 12 -8 23 -2 46 24 17 19 41 45 54 57 48 48
13 48 -47 0z"/>
<path d="M7395 1879 c-4 -11 -18 -24 -31 -29 -13 -5 -24 -14 -24 -20 0 -13 37
-13 45 0 4 6 12 10 18 9 29 -4 37 3 37 31 0 23 -5 30 -19 30 -11 0 -23 -9 -26
-21z"/>
<path d="M8140 1775 c0 -8 5 -15 10 -15 6 0 10 7 10 15 0 8 -4 15 -10 15 -5 0
-10 -7 -10 -15z"/>
<path d="M3485 1755 c-15 -11 -29 -12 -52 -6 -22 7 -39 5 -58 -5 -15 -8 -38
-14 -52 -14 -13 0 -34 -6 -46 -12 -12 -7 -87 -23 -167 -35 -161 -24 -221 -36
-295 -57 -27 -8 -95 -27 -150 -41 -55 -14 -124 -32 -154 -40 -77 -20 -112 -36
-108 -49 2 -6 15 -11 28 -10 38 2 175 33 213 49 20 8 49 15 66 15 17 0 41 5
53 12 31 16 83 29 157 38 103 13 214 35 230 45 8 5 34 10 58 11 24 1 53 6 65
12 63 28 86 35 132 38 147 8 211 31 150 54 -34 13 -46 12 -70 -5z"/>
<path d="M6679 1690 c-19 -15 -20 -19 -8 -20 9 0 27 9 40 20 19 15 20 19 8 20
-9 0 -27 -9 -40 -20z"/>
<path d="M7904 1675 c-3 -8 -21 -17 -40 -21 -19 -3 -34 -10 -34 -15 0 -5 12
-7 28 -3 45 10 93 35 87 45 -9 14 -35 11 -41 -6z"/>
<path d="M7118 1662 c-51 -3 -58 -11 -32 -33 12 -10 20 -10 35 -1 10 7 30 12
44 12 26 0 35 15 13 21 -7 2 -34 3 -60 1z"/>
<path d="M1231 1647 c-20 -25 18 -37 49 -17 13 9 13 11 0 20 -21 13 -36 12
-49 -3z"/>
<path d="M6618 1653 c7 -3 16 -2 19 1 4 3 -2 6 -13 5 -11 0 -14 -3 -6 -6z"/>
<path d="M3395 1601 c-11 -4 -37 -15 -57 -24 -21 -9 -54 -17 -75 -17 -21 0
-62 -11 -91 -25 -30 -14 -59 -22 -64 -18 -6 3 -29 -3 -52 -14 -73 -37 -116
-53 -139 -53 -13 0 -31 -6 -42 -13 -15 -12 -8 -13 51 -5 38 4 79 13 92 18 13
6 32 10 42 10 11 0 24 9 30 20 7 12 21 20 37 20 41 0 185 30 221 46 18 8 36
13 40 10 15 -9 97 21 97 35 0 16 -57 22 -90 10z"/>
<path d="M7726 1573 c-12 -12 -6 -43 9 -43 8 0 15 9 15 19 0 21 -13 34 -24 24z"/>
<path d="M7800 1566 c0 -9 7 -16 16 -16 17 0 14 22 -4 28 -7 2 -12 -3 -12 -12z"/>
<path d="M7134 1416 c-10 -8 -16 -17 -12 -21 11 -11 48 5 48 21 0 18 -11 18
-36 0z"/>
<path d="M3650 1416 c0 -9 40 -13 46 -5 3 5 -6 9 -20 9 -14 0 -26 -2 -26 -4z"/>
<path d="M2345 1398 c-11 -6 -24 -17 -28 -25 -5 -8 -20 -18 -33 -24 -21 -7
-25 -15 -22 -41 3 -32 3 -32 54 -29 45 2 51 0 62 -23 6 -14 18 -26 27 -26 22
0 78 -58 110 -112 30 -54 28 -52 54 -36 16 10 25 6 57 -19 22 -17 53 -37 69
-46 17 -8 41 -27 54 -41 14 -14 32 -26 42 -26 10 0 33 -18 50 -40 18 -22 41
-40 51 -40 17 0 18 2 3 30 -8 16 -27 38 -42 47 -15 10 -36 27 -48 38 -29 28
-131 108 -238 187 -50 36 -97 78 -104 92 -7 14 -24 28 -38 32 -33 8 -44 24
-53 72 -6 37 -9 40 -27 30z"/>
<path d="M6937 1353 c-12 -11 -8 -23 8 -23 8 0 15 7 15 15 0 16 -12 20 -23 8z"/>
<path d="M2264 1193 c4 -13 19 -35 34 -51 15 -15 35 -42 44 -60 11 -20 25 -32
38 -32 13 0 48 -27 91 -70 38 -38 69 -72 69 -75 0 -3 -7 -5 -15 -5 -22 0 -19
-28 4 -35 10 -3 45 -32 77 -65 32 -33 66 -62 74 -65 8 -3 20 -15 25 -27 18
-38 35 -34 35 10 0 33 -6 45 -34 70 -19 16 -36 40 -38 53 -2 14 -12 25 -24 29
-12 3 -41 27 -65 55 -24 27 -64 71 -89 97 -25 27 -56 62 -70 79 -44 53 -49 57
-70 52 -12 -3 -22 1 -26 11 -3 9 -11 16 -17 16 -6 0 -19 8 -30 18 -19 16 -19
16 -13 -5z"/>
<path d="M2820 1180 c0 -5 5 -10 11 -10 5 0 7 5 4 10 -3 6 -8 10 -11 10 -2 0
-4 -4 -4 -10z"/>
<path d="M3902 1158 c6 -16 36 -34 44 -25 9 9 -15 37 -33 37 -8 0 -13 -5 -11
-12z"/>
<path d="M3600 1021 c0 -5 9 -7 20 -4 11 3 20 7 20 9 0 2 -9 4 -20 4 -11 0
-20 -4 -20 -9z"/>
<path d="M3517 1013 c-12 -11 -8 -23 8 -23 8 0 15 7 15 15 0 16 -12 20 -23 8z"/>
<path d="M3450 969 c0 -5 5 -7 10 -4 6 3 10 8 10 11 0 2 -4 4 -10 4 -5 0 -10
-5 -10 -11z"/>
<path d="M4345 960 c-7 -12 22 -12 50 0 17 7 15 9 -12 9 -17 1 -35 -3 -38 -9z"/>
<path d="M3060 936 c0 -14 29 -31 38 -22 2 3 2 12 -1 21 -8 19 -37 20 -37 1z"/>
<path d="M4132 919 c-35 -10 -74 -25 -86 -33 -13 -8 -37 -16 -55 -18 -29 -3
-31 -5 -19 -20 24 -32 69 -33 109 -1 20 15 65 36 100 47 35 10 70 20 77 22 7
2 10 8 7 14 -9 15 -61 10 -133 -11z"/>
<path d="M2730 905 c0 -13 111 -117 118 -111 4 4 -5 18 -19 30 -14 12 -28 29
-32 38 -6 16 -67 55 -67 43z"/>
<path d="M3853 848 c-4 -7 -6 -23 -4 -35 1 -13 -3 -23 -10 -23 -6 0 -17 -8
-24 -17 -11 -15 -15 -15 -29 -4 -23 19 -20 28 10 38 l27 9 -29 18 c-27 19 -28
19 -42 -2 -8 -12 -21 -22 -29 -22 -23 0 -142 -41 -149 -51 -3 -5 -15 -9 -27
-9 -21 -1 -21 -2 6 -21 15 -11 27 -27 27 -34 0 -20 -63 -65 -91 -65 -13 0 -33
-7 -43 -15 -11 -8 -30 -15 -42 -15 -12 0 -33 -9 -47 -20 -14 -11 -34 -20 -46
-20 -27 0 -89 -30 -95 -46 -3 -7 2 -18 10 -25 12 -10 20 -7 42 14 20 19 49 30
112 42 47 9 99 17 117 18 17 1 40 10 51 20 22 20 74 37 112 37 14 0 33 8 42
19 8 10 22 21 29 23 28 10 -3 21 -63 22 -71 1 -85 17 -39 43 17 10 31 21 31
26 0 4 5 7 12 7 9 0 9 -3 0 -12 -35 -35 11 -44 92 -17 38 12 71 29 76 39 8 15
21 19 60 18 27 -1 53 2 57 6 11 11 -53 66 -77 66 -10 0 -22 -6 -27 -12z"/>
<path d="M2955 820 c3 -5 10 -10 16 -10 5 0 9 5 9 10 0 6 -7 10 -16 10 -8 0
-12 -4 -9 -10z"/>
<path d="M3792 690 c-16 -26 -15 -30 7 -30 17 0 31 18 31 41 0 16 -25 9 -38
-11z"/>
<path d="M2970 694 c0 -13 48 -59 55 -52 3 2 -9 17 -25 33 -17 16 -30 24 -30
19z"/>
<path d="M2760 661 c10 -20 48 -51 62 -51 5 0 -2 16 -14 35 -25 38 -68 52 -48
16z"/>
<path d="M3783 473 c-7 -3 -13 -9 -13 -14 0 -12 47 -12 54 0 7 10 -23 20 -41
14z"/>
<path d="M3662 449 c-24 -12 -40 -25 -36 -31 10 -15 79 -3 108 20 47 36 -1 43
-72 11z"/>
<path d="M3535 411 c-43 -20 -120 -45 -175 -56 -19 -4 -39 -11 -45 -15 -35
-26 -133 -15 -122 14 20 53 20 54 -18 42 -39 -12 -45 -30 -15 -48 12 -8 20
-24 20 -41 0 -15 6 -30 13 -33 8 -3 45 7 83 21 38 15 80 29 94 32 14 2 34 8
45 13 11 5 44 14 73 19 98 20 146 49 106 65 -20 8 -13 9 -59 -13z"/>
</g>
</svg>
